<svg width="40" height="37" viewBox="0 0 40 37" fill="none" xmlns="http://www.w3.org/2000/svg">
<path d="M30.014 22.8996C30.05 22.7998 30.0684 22.6944 30.0684 22.5882V15.3318C30.0684 15.2565 30.0593 15.1814 30.0411 15.1082C30.0076 14.9731 29.9442 14.8472 29.8555 14.7399L29.7947 14.6664L29.6735 14.5442C29.6242 14.4945 29.5685 14.4516 29.5078 14.4166C29.3884 14.3478 29.253 14.3116 29.1152 14.3116H29.0909H28.6608C28.5073 14.3116 28.3568 14.3536 28.2255 14.433L28.1885 14.4554C28.0871 14.5167 27.9964 14.5949 27.9269 14.6909C27.8895 14.7425 27.855 14.7933 27.8397 14.8241C27.715 15.0755 27.6833 15.362 27.6833 15.6426V22.5148C27.6833 22.669 27.7154 22.8216 27.7776 22.9627C27.8188 23.0561 27.8727 23.1434 27.9377 23.2222L27.9644 23.2544C28.0115 23.3114 28.0631 23.3647 28.1186 23.4136L28.2788 23.555C28.3247 23.5955 28.3757 23.63 28.4304 23.6576C28.5305 23.708 28.641 23.7343 28.7531 23.7343H28.9002C29.0006 23.7343 29.1003 23.718 29.1955 23.686C29.3324 23.64 29.4567 23.5626 29.5584 23.4601L29.6311 23.3867C29.6619 23.3557 29.6957 23.3278 29.732 23.3034C29.8489 23.2248 29.9378 23.1109 29.9856 22.9783L30.014 22.8996Z" fill="#F3F3F3"/>
<path d="M24.2033 22.6269V15.3715C24.2033 15.296 24.1941 15.2207 24.176 15.1474C24.1425 15.0125 24.0793 14.8869 23.9909 14.78L23.9296 14.7058L23.8088 14.584C23.7592 14.534 23.7033 14.4909 23.6424 14.4558C23.5231 14.3871 23.3882 14.351 23.2508 14.351H23.2258H22.7957C22.6422 14.351 22.4916 14.3931 22.3599 14.4727L22.324 14.4945C22.2222 14.556 22.1311 14.6346 22.0611 14.7313C22.0239 14.7825 21.9898 14.8329 21.9746 14.8635C21.85 15.1147 21.8182 15.4017 21.8182 15.6825V22.5536C21.8182 22.7082 21.8504 22.8611 21.9126 23.0024C21.9537 23.0956 22.0074 23.1827 22.0722 23.2611L22.0994 23.294C22.1465 23.3509 22.1979 23.404 22.2532 23.4528L22.4134 23.5942C22.4595 23.6349 22.5107 23.6695 22.5655 23.6971C22.6655 23.7475 22.7757 23.7738 22.8874 23.7738H23.0356C23.1357 23.7738 23.2351 23.7575 23.3301 23.7256C23.4672 23.6795 23.5918 23.6018 23.6941 23.4987L23.7661 23.4261C23.7968 23.3951 23.8305 23.3672 23.8667 23.3429C23.9838 23.2642 24.0729 23.1499 24.1209 23.0166L24.1487 22.9396C24.1848 22.8394 24.2033 22.7335 24.2033 22.6269Z" fill="#F3F3F3"/>
<path d="M18.26 22.5502V15.2949C18.26 15.2194 18.2508 15.1441 18.2327 15.0708C18.1992 14.9358 18.1359 14.8102 18.0476 14.7034L17.9863 14.6292L17.8655 14.5074C17.8159 14.4574 17.76 14.4143 17.6991 14.3792C17.5798 14.3105 17.4449 14.2744 17.3075 14.2744H17.2825H16.8524C16.6989 14.2744 16.5483 14.3164 16.4166 14.3961L16.3806 14.4178C16.2789 14.4794 16.1878 14.558 16.1178 14.6546C16.0806 14.7059 16.0465 14.7563 16.0313 14.7869C15.9067 15.0381 15.8749 15.325 15.8749 15.6059V22.4769C15.8749 22.6316 15.9071 22.7845 15.9693 22.9258C16.0104 23.019 16.0641 23.1061 16.1289 23.1844L16.1561 23.2174C16.2032 23.2743 16.2546 23.3274 16.3099 23.3762L16.4701 23.5175C16.5162 23.5582 16.5673 23.5928 16.6222 23.6205C16.7222 23.6709 16.8324 23.6971 16.9441 23.6971H17.0923C17.1924 23.6971 17.2918 23.6808 17.3868 23.6489C17.5239 23.6028 17.6485 23.5252 17.7508 23.4221L17.8228 23.3495C17.8535 23.3185 17.8872 23.2906 17.9234 23.2663C18.0405 23.1876 18.1296 23.0732 18.1776 22.9399L18.2054 22.863C18.2415 22.7628 18.26 22.6569 18.26 22.5502Z" fill="#F3F3F3"/>
<path d="M12.3814 22.4736V15.2183C12.3814 15.1427 12.3722 15.0675 12.3541 14.9942C12.3206 14.8592 12.2574 14.7336 12.169 14.6267L12.1077 14.5526L11.9869 14.4308C11.9374 14.3808 11.8814 14.3377 11.8205 14.3026C11.7012 14.2339 11.5663 14.1977 11.429 14.1977H11.4039H10.9738C10.8203 14.1977 10.6697 14.2398 10.538 14.3194L10.5021 14.3412C10.4003 14.4028 10.3092 14.4814 10.2392 14.578C10.202 14.6293 10.1679 14.6797 10.1527 14.7103C10.0281 14.9615 9.99629 15.2484 9.99629 15.5292V22.4003C9.99629 22.5549 10.0285 22.7079 10.0907 22.8492C10.1318 22.9424 10.1855 23.0294 10.2503 23.1078L10.2775 23.1407C10.3246 23.1976 10.376 23.2507 10.4313 23.2995L10.5915 23.4409C10.6376 23.4816 10.6888 23.5162 10.7436 23.5439C10.8436 23.5942 10.9538 23.6205 11.0655 23.6205H11.2137C11.3138 23.6205 11.4132 23.6042 11.5082 23.5723C11.6453 23.5262 11.7699 23.4485 11.8722 23.3455L11.9442 23.2728C11.9749 23.2418 12.0086 23.214 12.0448 23.1897C12.1619 23.111 12.251 22.9966 12.299 22.8633L12.3268 22.7864C12.3629 22.6861 12.3814 22.5803 12.3814 22.4736Z" fill="#F3F3F3"/>
<path fill-rule="evenodd" clip-rule="evenodd" d="M34.1349 10.1719H32.8837H31.5152H5.78175H4.7761C4.69903 10.1719 4.62202 10.1802 4.54675 10.1968C4.3854 10.2322 4.23415 10.3047 4.10557 10.4084L3.91007 10.6056C3.89352 10.6222 3.85435 10.6691 3.8134 10.7193C3.74735 10.8002 3.69602 10.892 3.6596 10.9899C3.61837 11.1008 3.59726 11.2181 3.59726 11.3364V24.863C3.59726 25.1977 3.32592 25.4691 2.9912 25.4691C2.65649 25.4691 2.38514 25.1977 2.38514 24.863V24.7664C2.38514 24.658 2.36011 24.5512 2.31199 24.4542L2.25036 24.3299C2.20999 24.2485 2.163 24.1697 2.09853 24.1056C2.04776 24.0552 1.9916 24.0103 1.95503 24.0103C1.91675 24.0103 1.81794 23.9512 1.72312 23.8873C1.61792 23.8164 1.49538 23.7738 1.36852 23.7738H1.14899C0.960079 23.7738 0.774769 23.8254 0.613136 23.9232C0.517811 23.9809 0.432415 24.0536 0.360256 24.1385L0.234604 24.2863C0.0822678 24.4911 0 24.7395 0 24.9948V28.326C0 28.5486 0.0397224 28.7694 0.117302 28.9779C0.194668 29.134 0.303452 29.2724 0.436829 29.3844L0.469208 29.4116C0.597294 29.5205 0.751717 29.5937 0.917019 29.6241L0.927162 29.626C0.986675 29.6369 1.04706 29.6424 1.10757 29.6424H1.15784C1.29702 29.6424 1.43491 29.6158 1.56411 29.5641C1.642 29.5329 1.71603 29.4929 1.78476 29.4448L1.89651 29.3666C1.93546 29.3393 1.97663 29.3154 2.0196 29.295L2.08354 29.2648C2.15342 29.2317 2.21516 29.1837 2.2644 29.1241C2.34245 29.0296 2.38514 28.9109 2.38514 28.7884V28.7808C2.38514 28.3018 2.77348 27.9135 3.25251 27.9135H9.84261C11.9413 27.9135 13.8188 29.2181 14.5508 31.185L14.6951 31.5725C14.7515 31.7241 14.8274 31.8677 14.9209 31.9997L14.9275 32.0089C14.9855 32.0908 15.0505 32.1675 15.1218 32.2382L15.1906 32.3063C15.2555 32.3706 15.3287 32.4259 15.4084 32.4706C15.5604 32.556 15.7319 32.6009 15.9063 32.601L24.1683 32.605C24.3455 32.6051 24.5201 32.5627 24.6775 32.4814C24.7779 32.4296 24.8697 32.3627 24.9499 32.2831L24.9611 32.272C25.0802 32.1537 25.1735 32.0119 25.2349 31.8556L25.529 31.1071C26.2861 29.1804 28.1453 27.9135 30.2154 27.9135H37.0443C37.4242 27.9135 37.7322 28.2214 37.7322 28.6013C37.7322 28.6937 37.7508 28.7853 37.787 28.8703L37.8089 28.922C37.8359 28.9854 37.8696 29.0457 37.9094 29.102L37.9741 29.1934C38.0212 29.2598 38.0761 29.3203 38.1377 29.3735C38.2567 29.4763 38.3981 29.5499 38.5507 29.5884L38.6315 29.6088L38.7069 29.6305C38.8372 29.668 38.9746 29.6736 39.1075 29.6468C39.2317 29.6218 39.3487 29.5691 39.4498 29.4926L39.5402 29.4242C39.586 29.3896 39.6293 29.3518 39.6697 29.311L39.7371 29.243C39.8822 29.0967 39.9747 28.9064 40 28.702V24.8475C40 24.7114 39.9717 24.5768 39.9168 24.4523C39.8684 24.3425 39.8003 24.2426 39.7159 24.1575L39.6908 24.1323C39.6364 24.0774 39.5767 24.028 39.5125 23.9849L39.4507 23.9433C39.3999 23.9092 39.3461 23.8798 39.29 23.8556L39.261 23.843C39.1553 23.7973 39.0412 23.7738 38.926 23.7738C38.8345 23.7738 38.7437 23.7886 38.6569 23.8178L38.436 23.892L38.2085 23.9838C38.1012 24.0271 38.0064 24.0964 37.9327 24.1856C37.8777 24.2521 37.8356 24.3283 37.8085 24.4103L37.7665 24.5373C37.7437 24.6061 37.7322 24.678 37.7322 24.7505V24.8423C37.7322 25.1667 37.4692 25.4296 37.1448 25.4296C36.8211 25.4296 36.5584 25.1677 36.5575 24.8439L36.52 11.1575C36.52 11.0524 36.5122 10.8421 36.4809 10.8421C36.4721 10.8421 36.4567 10.8273 36.438 10.8039C36.3218 10.6588 36.2051 10.5121 36.0508 10.4084L35.8878 10.291C35.8149 10.2385 35.7316 10.2021 35.6434 10.1843C35.6023 10.176 35.5605 10.1719 35.5186 10.1719H34.1349ZM27.6494 25.4296C31.2312 25.4296 34.1349 22.526 34.1349 18.9441C34.1349 15.3622 31.2312 12.4586 27.6494 12.4586H12.507C8.92518 12.4586 6.02151 15.3622 6.02151 18.9441C6.02151 22.526 8.92518 25.4296 12.507 25.4296H27.6494ZM22.5059 30.279C23.0012 30.279 23.444 29.9704 23.6155 29.5058C23.9006 28.7335 23.3291 27.9135 22.5059 27.9135H17.6434C16.8009 27.9135 16.2285 28.7693 16.5503 29.5479C16.7331 29.9904 17.1647 30.279 17.6434 30.279H22.5059Z" fill="#F3F3F3"/>
<path d="M6.68622 2.36553L11.8182 -1.23223e-05V1.57702H20.3715H28.9247V-1.23223e-05L34.0567 2.36553L28.9247 4.73108V3.15405H11.8182V4.73108L6.68622 2.36553Z" fill="#F3F3F3"/>
<path fill-rule="evenodd" clip-rule="evenodd" d="M9.62249 29.1886L8.84593 29.3256C8.67191 29.3563 8.50663 29.4249 8.36161 29.5266C7.95184 29.8141 7.40939 29.8195 6.99406 29.5403L6.95971 29.5172C6.81738 29.4215 6.65741 29.3557 6.48933 29.3236L5.93388 29.2177C5.51313 29.1374 5.08128 29.1363 4.66015 29.2146L4.57925 29.2296C4.07508 29.3232 3.60133 29.54 3.19938 29.8608C2.98278 30.0337 2.78976 30.2347 2.62533 30.4585L2.43699 30.7149C2.20823 31.0263 2.03696 31.3767 1.93139 31.7493C1.83006 32.1069 1.79079 32.4795 1.81532 32.8505L1.81943 32.9127C1.84395 33.2836 1.92618 33.6483 2.0631 33.9934C2.18539 34.3017 2.34857 34.5924 2.55593 34.8503C2.69328 35.0211 2.81655 35.1678 2.83396 35.1678C2.85236 35.1678 3.04293 35.3041 3.24983 35.4566C3.51985 35.6555 3.81435 35.8187 4.12794 35.9358L4.17913 35.9549C4.53077 36.0862 4.90277 36.1534 5.27776 36.1534C5.65274 36.1534 6.02474 36.0862 6.37638 35.9549L6.79213 35.7996C6.86416 35.7727 6.93344 35.7388 6.99898 35.6985C7.37178 35.4687 7.83956 35.4639 8.21695 35.6859L8.39617 35.7913C8.49354 35.8486 8.59686 35.8948 8.70427 35.9293L8.90025 35.9922C9.23334 36.099 9.58129 36.1534 9.93083 36.1534C10.4072 36.1534 10.879 36.0526 11.3144 35.8575L11.4925 35.7777C11.8688 35.6091 12.211 35.3721 12.5021 35.0785C12.7287 34.8501 12.9216 34.5901 13.0751 34.3065L13.0887 34.2813C13.2375 34.0062 13.3484 33.7119 13.4183 33.4066L13.4255 33.3748C13.5063 33.0219 13.528 32.6578 13.4897 32.2976C13.4504 31.9271 13.3481 31.5662 13.1875 31.2307L13.1638 31.1812C12.978 30.7932 12.7241 30.4424 12.4143 30.1456L12.3814 30.1141C12.1949 29.9354 11.99 29.7773 11.7702 29.6424L11.6648 29.5777C11.3585 29.3897 11.0208 29.2596 10.6682 29.1938C10.3227 29.1293 9.96857 29.1275 9.62249 29.1886ZM10.3288 33.7462L10.318 33.7497C10.0802 33.8254 9.82377 33.8157 9.59224 33.7223C9.44186 33.6617 9.30695 33.5677 9.19751 33.4473L9.16021 33.4063C9.01154 33.2427 8.90396 33.0447 8.8565 32.8281C8.83389 32.7249 8.81637 32.635 8.81637 32.6051C8.81637 32.5263 8.93367 32.1714 8.93367 32.132C8.93367 32.111 9.06124 31.9835 9.18874 31.862C9.30346 31.7526 9.43884 31.668 9.58542 31.6089L9.67256 31.5738C9.85379 31.5007 10.0522 31.4823 10.2436 31.5209C10.3086 31.534 10.3721 31.5536 10.4333 31.5793L10.517 31.6144C10.7078 31.6946 10.8688 31.8333 10.9771 32.0108C11.0727 32.1674 11.1233 32.3476 11.1233 32.5315V32.6362C11.1233 32.8727 11.0521 33.1037 10.9192 33.2987L10.9097 33.3127C10.7694 33.5184 10.5649 33.671 10.3288 33.7462ZM5.78175 31.6327L5.53318 31.545C5.37843 31.4904 5.21252 31.476 5.0508 31.5032C4.90427 31.5278 4.76525 31.5859 4.64437 31.6729L4.62646 31.6858C4.5785 31.7204 4.53345 31.7589 4.49177 31.8009L4.42603 31.8672C4.27995 32.0145 4.17786 32.2002 4.1314 32.4032C4.10085 32.5367 4.09504 32.6747 4.11425 32.8103L4.1151 32.8163C4.14659 33.0385 4.24228 33.2466 4.39023 33.4144L4.41367 33.441C4.45526 33.4882 4.50106 33.5314 4.55048 33.5702C4.73041 33.7113 4.95185 33.7879 5.1798 33.7879H5.27672C5.39394 33.7879 5.5104 33.7688 5.62161 33.7315C5.81839 33.6653 5.99239 33.544 6.12319 33.3816L6.18201 33.3086C6.34323 33.1086 6.43122 32.8587 6.43122 32.6009V32.5558C6.43122 32.3569 6.37107 32.1627 6.25877 31.9991C6.14214 31.8292 5.97515 31.701 5.78175 31.6327Z" fill="#F3F3F3"/>
<path fill-rule="evenodd" clip-rule="evenodd" d="M35.4398 29.1939C35.094 29.1293 34.7395 29.1275 34.393 29.1887L33.6172 29.3256C33.4431 29.3563 33.2779 29.4248 33.1331 29.5263C32.7237 29.8135 32.1797 29.8189 31.7647 29.5399L31.7304 29.5169C31.5884 29.4214 31.4285 29.3557 31.2603 29.3236L30.706 29.2179C30.2847 29.1375 29.852 29.1364 29.4302 29.2148L29.3542 29.2289C28.8476 29.323 28.372 29.5403 27.9693 29.8618C27.7535 30.034 27.5614 30.234 27.3979 30.4565L27.2094 30.7131C26.9798 31.0257 26.808 31.3769 26.7023 31.7501C26.6011 32.1072 26.5619 32.479 26.5864 32.8493L26.5907 32.9142C26.6151 33.2841 26.6972 33.648 26.8339 33.9926C26.9564 34.3014 27.12 34.5929 27.3282 34.8518C27.4651 35.022 27.5877 35.1678 27.6051 35.1678C27.6235 35.1678 27.815 35.3048 28.0225 35.4577C28.2915 35.6559 28.5852 35.8186 28.8982 35.9355L28.9508 35.9551C29.302 36.0863 29.6739 36.1534 30.0489 36.1534C30.4238 36.1534 30.7957 36.0863 31.147 35.9551L31.5634 35.7996C31.6353 35.7727 31.7045 35.7389 31.7698 35.6986C32.1424 35.4691 32.6113 35.4643 32.9884 35.6861L33.1676 35.7915C33.2648 35.8486 33.3679 35.8948 33.4752 35.9293L33.6709 35.992C34.0043 36.099 34.3524 36.1534 34.7025 36.1534C35.1788 36.1534 35.6499 36.0528 36.0845 35.858L36.2608 35.779C36.6389 35.6095 36.9825 35.3717 37.2743 35.0775C37.5002 34.8497 37.6923 34.5909 37.845 34.3087L37.8592 34.2824C38.0084 34.0066 38.1195 33.7118 38.1895 33.4061L38.1967 33.3747C38.2774 33.0218 38.2991 32.6579 38.2609 32.2979C38.2215 31.9272 38.1191 31.5659 37.9581 31.2297L37.9355 31.1825C37.7493 30.7936 37.4945 30.4416 37.1831 30.1434L37.1514 30.113C36.9656 29.935 36.7614 29.7775 36.5422 29.6429L36.4346 29.5769C36.1292 29.3894 35.792 29.2596 35.4398 29.1939ZM35.6791 33.3152C35.5399 33.5193 35.3364 33.6709 35.101 33.7459L35.0901 33.7494C34.8518 33.8252 34.5945 33.8156 34.3626 33.722C34.2127 33.6616 34.0784 33.5681 33.9697 33.4485L33.9305 33.4054C33.7824 33.2424 33.6753 33.0455 33.6281 32.8304C33.6053 32.7262 33.5875 32.6352 33.5875 32.6051C33.5875 32.5263 33.7048 32.1714 33.7048 32.132C33.7048 32.1109 33.833 31.9829 33.9608 31.8611C34.0749 31.7523 34.2098 31.6681 34.3559 31.6092L34.4438 31.5737C34.6249 31.5007 34.8234 31.4823 35.0148 31.5209C35.0797 31.534 35.1432 31.5535 35.2042 31.5792L35.2856 31.6134C35.478 31.6942 35.6402 31.8337 35.7489 32.0119C35.8441 32.1678 35.8944 32.3469 35.8944 32.5296V32.6389C35.8944 32.8737 35.8237 33.1032 35.6913 33.2972L35.6791 33.3152ZM31.0307 32.0003C30.9136 31.8297 30.7453 31.7006 30.5501 31.6318L30.3044 31.545C30.1496 31.4904 29.9835 31.476 29.8216 31.5032C29.6753 31.5278 29.5366 31.5857 29.4162 31.6724L29.3973 31.686C29.3495 31.7204 29.3047 31.7588 29.2632 31.8006L29.1983 31.866C29.0514 32.0141 28.9489 32.2003 28.9024 32.4036C28.8719 32.5368 28.8661 32.6745 28.8853 32.8098L28.8862 32.8159C28.9177 33.0385 29.0137 33.2469 29.1624 33.4156L29.1852 33.4414C29.2265 33.4883 29.2721 33.5313 29.3212 33.5699C29.5013 33.7111 29.7236 33.7879 29.9525 33.7879H30.0471C30.1648 33.7879 30.2817 33.7688 30.3933 33.7313C30.5897 33.6653 30.7631 33.5445 30.8931 33.3831L30.9523 33.3097C31.1141 33.1089 31.2023 32.8587 31.2023 32.6008V32.5536C31.2023 32.356 31.1425 32.1631 31.0307 32.0003Z" fill="#F3F3F3"/>
</svg>
