<svg width="34" height="34" viewBox="0 0 34 34" fill="none" xmlns="http://www.w3.org/2000/svg">
<path d="M2.05882 19.5476C4.29601 19.4918 5.55699 19.4887 7.82353 19.5476C7.79226 19.9445 7.74933 20.1245 7.58823 20.3057C7.29017 20.5237 7.12743 20.6191 6.84314 20.7605C5.1217 20.7404 4.19603 20.7205 2.60784 20.6595C2.39653 20.5312 2.30647 20.4396 2.17647 20.2552C2.08659 19.9892 2.06504 19.8339 2.05882 19.5476Z" fill="#3F8971"/>
<path d="M8.84314 19.5982L9.62745 19.1433C9.74275 19.1614 9.765 19.1974 9.7451 19.2949L9.70588 22.3272L9.62745 22.5294C9.43898 22.2129 9.28655 22.114 8.96078 22.024C8.86748 21.6253 8.88431 21.3703 8.92157 20.9122L9.47059 19.4971L8.92157 19.7498H8.80392L8.84314 19.5982Z" fill="#3F8971"/>
<path d="M18.6863 28.6445C18.6647 27.6535 17.5775 27.639 17.5115 28.6281C17.5109 28.6366 17.5103 28.6451 17.5098 28.6537C17.5108 28.6711 17.5118 28.6882 17.5128 28.7052C17.5741 29.7141 18.6529 29.6548 18.6863 28.6445V28.6445V28.6445Z" fill="#3F8971"/>
<path d="M26.3725 26.8343C26.3203 25.907 25.4102 25.9073 25.3529 26.8343V26.8343V26.8343C25.3985 27.7874 26.3238 27.8105 26.3714 26.8576C26.3718 26.8499 26.3722 26.8421 26.3725 26.8343V26.8343Z" fill="#3F8971"/>
<path d="M30.7125 25.3697C30.6726 24.6923 29.9292 24.6492 29.8753 25.3256C29.867 25.4298 29.8627 25.545 29.8627 25.6719C29.8627 25.6851 29.8628 25.6982 29.8629 25.7111C29.8688 26.5629 30.7017 26.5234 30.7255 25.6719V25.6719C30.7221 25.5622 30.7179 25.4616 30.7125 25.3697Z" fill="#3F8971"/>
<path d="M3.03922 27.3811V27.8359C3.18881 28.1994 3.29623 28.3433 3.54902 28.4424L6.21569 28.6951C6.41054 28.6784 6.50718 28.6302 6.64706 28.4424C6.7089 28.2297 6.72023 28.1072 6.72549 27.8865V27.7349C5.43804 27.5741 4.6212 27.4975 3.03922 27.3811Z" fill="#3F8971"/>
<path d="M2.4902 26.1176C2.55194 26.0898 5.8615 26.3191 7.5098 26.4714L7.31373 27.0273C7.13335 27.1555 7.02376 27.2235 6.80392 27.3305C5.41575 27.2609 4.6349 27.1942 3.23529 27.0273C3.23529 27.0273 2.96078 26.9262 2.80392 26.7241C2.64706 26.5219 2.54902 26.4035 2.4902 26.1176Z" fill="#3F8971"/>
<path d="M8.96078 15.2518L7.43137 15.7572C7.27075 15.9347 7.20711 16.0538 7.15686 16.3132C7.1558 16.5348 7.16342 16.6478 7.23529 16.768C8.09103 16.8588 8.2092 16.7981 8.60784 16.768L8.72549 16.0605L8.96078 15.2518Z" fill="#3F8971"/>
<path d="M2.17647 16.3637C1.85985 16.0493 1.65824 15.9499 1.27125 15.8583C1.23741 16.237 1.20377 16.616 1.18182 16.8691C1.5797 16.9699 1.82325 17.0187 2.21569 17.0207C2.24124 16.7627 2.24923 16.6182 2.17647 16.3637Z" fill="#3F8971"/>
<path d="M1.03922 19.2949V19.6487L1 19.9519V21.8724L1.07843 22.1251L1.35294 22.2262L1.43137 22.1251L1.47059 20.8616L1.29866 20.064C1.29088 20.0279 1.33342 20.0025 1.36143 20.0266V20.0266C1.37815 20.041 1.40348 20.0384 1.41699 20.021L1.46443 19.9599C1.49195 19.9244 1.49575 19.8758 1.47343 19.8368C1.33674 19.5983 1.23557 19.4716 1.03922 19.2949Z" fill="#3F8971"/>
<path d="M2.33333 24.8542C4.39179 24.9015 5.54317 24.9341 7.58823 25.0058L7.5098 25.5112C7.34774 25.7964 7.20811 25.9028 6.84314 25.966C5.37246 25.9285 4.5587 25.8848 3.11765 25.7638C2.8738 25.7095 2.75552 25.6423 2.56863 25.4606C2.41487 25.2688 2.37541 25.1275 2.33333 24.8542Z" fill="#3F8971"/>
<path d="M2.33333 21.1648C4.38381 21.1165 5.53691 21.1184 7.58823 21.1648C7.62902 21.549 7.57842 21.7337 7.39216 22.024C7.18516 22.1517 7.06371 22.2049 6.84314 22.2767C5.49563 22.2895 4.73947 22.2892 3.39216 22.2767C3.03463 22.2521 2.86396 22.1943 2.60784 22.024C2.42787 21.8937 2.37521 21.7977 2.29412 21.6197V21.367L2.33333 21.1648Z" fill="#3F8971"/>
<path fill-rule="evenodd" clip-rule="evenodd" d="M11.1569 22.7315C11.0036 23.0974 10.9714 23.3151 11.0784 23.7423C11.2344 24.1369 11.3408 24.3054 11.5882 24.4498V24.9047L11.6275 27.1789H11.9412C11.9281 28.0044 11.9098 29.6553 11.9412 29.6553C11.9725 29.6553 13.732 29.3184 14.6078 29.1499V28.1392L14.6863 27.0778L15.1176 26.7746L15.7451 25.0563L15.9412 24.6015L16.2549 24.2982H17.549C17.9978 24.3381 18.2349 24.3843 18.6078 24.5509C19.0475 24.9185 19.258 25.1479 19.549 25.6122C19.7788 26.1296 19.8772 26.4243 20.0196 26.9768C20.1566 27.6464 20.2113 28.0129 20.2549 28.6445L20.6863 28.7962L24.0588 28.1897C23.9071 27.7794 23.8627 27.4821 23.8627 27.0273C23.9149 24.9904 24.1847 24.0653 25.1569 23.1358C25.5281 23.0221 25.7331 23.0267 26.098 23.1358C26.5682 23.3662 26.7718 23.5753 27.0392 24.0961C27.2455 24.5743 27.3372 24.852 27.4706 25.3595C27.6133 26.0936 27.6655 26.5119 27.6667 27.28L28.098 27.4316L28.8431 27.1789C28.8223 26.756 28.8205 26.5114 28.8431 26.0671C28.8804 25.4236 28.9331 25.0726 29.0392 24.4498C29.1148 23.8908 29.1937 23.5824 29.3529 23.0348C29.5033 22.676 29.6024 22.4851 29.8235 22.1756C29.891 22.0617 29.9435 21.9766 30.0022 21.8933C30.0517 21.8231 30.1055 21.7541 30.1765 21.6702C30.3595 21.6534 30.7337 21.6138 30.7647 21.6197C30.8434 21.6348 31.1774 21.9084 31.2745 22.024C31.4416 22.3152 31.5199 22.491 31.6275 22.8326C31.6776 23.1478 31.6944 23.324 31.7059 23.6412C31.7476 24.2045 31.7636 24.5244 31.7843 25.1068V26.4209L32.0196 26.5725L33 26.3198V24.3039L32.9941 22.2842L33 20.5251L23.902 21.0982L21.3922 21.3165L20.8039 19.5476L16.3725 19.8508C15.907 19.9234 15.7076 20.0675 15.4314 20.4573L14.451 22.1251C13.0963 22.2664 12.357 22.3738 11.1569 22.7315ZM14.6863 25.1574L14.2549 26.623V26.7746C14.4415 26.7393 14.5348 26.7045 14.6863 26.623C14.9074 26.4737 14.9947 26.3565 15.1176 26.1176L15.3922 25.309L15.5882 24.7531L15.9412 23.7423C15.926 23.747 16.2764 23.0906 16.6471 22.7315C17.0177 22.3725 18.7313 22.1673 19.0392 22.3272C19.0683 22.3423 19.3922 22.4957 19.549 22.5799C19.79 22.8272 19.8885 22.9782 20.0196 23.2875C20.3726 24.3551 20.4593 24.9988 20.6863 26.1176C20.5556 25.1574 20.3029 23.2252 20.2941 23.1864C20.283 23.1373 20.1472 22.7539 20.098 22.5799C19.9722 22.3523 19.8851 22.2286 19.7059 22.024C19.5432 21.8367 19.4306 21.7624 19.1961 21.6702C19 21.6534 18.5843 21.6232 18.4902 21.6197C18.3726 21.6153 17.5882 21.6197 17.3529 21.6197C17.1176 21.6197 16.3623 21.813 16.3333 21.8218C16.2602 21.8443 15.585 22.5839 15.5098 22.5799C15.4346 22.5759 14.8864 23.7667 14.9608 23.8939C15.0281 24.009 14.6523 24.7707 14.6863 25.1574ZM32.5294 26.2187V22.4788L32.6863 22.7315L32.8039 26.1176L32.5294 26.2187Z" fill="#3F8971"/>
<path fill-rule="evenodd" clip-rule="evenodd" d="M32.5294 22.4788V26.2187L32.8039 26.1176L32.6863 22.7315L32.5294 22.4788Z" fill="#3F8971"/>
<path d="M30.7647 21.6197C30.7337 21.6138 30.3595 21.6534 30.1765 21.6702C30.1055 21.7541 30.0517 21.8231 30.0022 21.8933C30.9358 21.855 31.3031 22.2572 31.7059 23.6412C31.6944 23.324 31.6776 23.1478 31.6275 22.8326C31.5199 22.491 31.4416 22.3152 31.2745 22.024C31.1774 21.9084 30.8434 21.6348 30.7647 21.6197Z" fill="#3F8971"/>
<path d="M1.35294 14.9486L1.31344 14.918L1.30446 14.9295L1.30314 14.9441L1.35294 14.9486ZM1.35294 17.425L1.40262 17.4307L1.4053 17.4072L1.38883 17.3902L1.35294 17.425ZM1.15686 19.1433L1.19637 19.174L1.20495 19.1629L1.20654 19.149L1.15686 19.1433ZM1.03922 19.2949L0.999713 19.2643L0.989216 19.2778V19.2949H1.03922ZM1.03922 19.6487L1.08922 19.6552V19.6487H1.03922ZM1 19.9519L0.95 19.9455V19.9519H1ZM1 21.8724H0.95V21.88L0.952247 21.8872L1 21.8724ZM1.07843 22.1251L1.03068 22.1399L1.03799 22.1635L1.06115 22.172L1.07843 22.1251ZM1.35294 22.2262L1.33566 22.2731L1.37001 22.2857L1.39244 22.2568L1.35294 22.2262ZM1.43137 22.1251L1.47088 22.1557L1.48084 22.1429L1.48135 22.1266L1.43137 22.1251ZM1.47059 20.8616L1.52208 20.8632L1.51947 20.8511L1.47059 20.8616ZM1.27125 15.8583L1.22145 15.8539L1.27125 15.8583ZM2.17647 16.3637L2.22454 16.3499L2.22096 16.3374L2.2117 16.3282L2.17647 16.3637ZM2.21569 17.0207L2.21544 17.0707L2.26096 17.0709L2.26544 17.0256L2.21569 17.0207ZM1.18182 16.8691L1.13201 16.8648L1.18182 16.8691ZM8.96078 15.2518L9.00879 15.2658L9.03535 15.1745L8.9451 15.2044L8.96078 15.2518ZM7.43137 15.7572L7.41568 15.7098L7.40316 15.7139L7.3943 15.7237L7.43137 15.7572ZM7.15686 16.3132L7.10691 16.3035L7.10686 16.3129L7.15686 16.3132ZM7.23529 16.768L7.19238 16.7937L7.20519 16.8151L7.23002 16.8177L7.23529 16.768ZM8.60784 16.768L8.6116 16.8179L8.65073 16.8149L8.65717 16.7762L8.60784 16.768ZM8.72549 16.0605L8.67714 16.0464L8.67617 16.0523L8.72549 16.0605ZM8.84314 19.5982L8.81805 19.5549L8.79997 19.5654L8.79473 19.5856L8.84314 19.5982ZM9.62745 19.1433L9.63522 19.0939L9.6177 19.0912L9.60237 19.1001L9.62745 19.1433ZM9.7451 19.2949L9.69523 19.2847L9.6951 19.2943L9.7451 19.2949ZM9.70588 22.3272L9.7525 22.3453L9.75576 22.3369L9.75588 22.3279L9.70588 22.3272ZM9.62745 22.5294L9.58449 22.555L9.63697 22.6431L9.67407 22.5475L9.62745 22.5294ZM8.96078 22.024L8.9121 22.0354L8.91886 22.0643L8.94747 22.0722L8.96078 22.024ZM8.92157 20.9122L8.87495 20.8941L8.87232 20.9009L8.87173 20.9081L8.92157 20.9122ZM9.47059 19.4971L9.5172 19.5152L9.56188 19.4L9.44968 19.4517L9.47059 19.4971ZM8.92157 19.7498V19.7998H8.93252L8.94247 19.7952L8.92157 19.7498ZM8.80392 19.7498L8.75551 19.7372L8.73934 19.7998H8.80392V19.7498ZM2.05882 19.5476L2.05758 19.4976L2.00775 19.4989L2.00884 19.5487L2.05882 19.5476ZM7.82353 19.5476L7.87337 19.5515L7.87751 19.499L7.82483 19.4976L7.82353 19.5476ZM7.58823 20.3057L7.61843 20.347L7.6256 20.3389L7.58823 20.3057ZM6.84314 20.7605L6.84255 20.8105L6.85461 20.8107L6.86541 20.8053L6.84314 20.7605ZM2.60784 20.6595L2.5819 20.7022L2.59297 20.7089L2.60592 20.7094L2.60784 20.6595ZM2.17647 20.2552L2.1291 20.2712L2.13142 20.278L2.1356 20.284L2.17647 20.2552ZM2.33333 21.1648L2.33216 21.1149L2.29191 21.1158L2.28425 21.1553L2.33333 21.1648ZM7.58823 21.1648L7.63796 21.1596L7.63331 21.1159L7.58937 21.1149L7.58823 21.1648ZM7.39216 22.024L7.41841 22.0666L7.4281 22.0606L7.43424 22.051L7.39216 22.024ZM6.84314 22.2767L6.84361 22.3267L6.8513 22.3266L6.85862 22.3242L6.84314 22.2767ZM3.39216 22.2767L3.38872 22.3267L3.39169 22.3267L3.39216 22.2767ZM2.60784 22.024L2.5785 22.0645L2.58015 22.0656L2.60784 22.024ZM2.29412 21.6197H2.24412V21.6305L2.24862 21.6404L2.29412 21.6197ZM2.29412 21.367L2.24412 21.3573V21.367H2.29412ZM2.33333 24.8542L2.33448 24.8042L2.27484 24.8028L2.28392 24.8618L2.33333 24.8542ZM7.58823 25.0058L7.63764 25.0134L7.64628 24.9578L7.58999 24.9558L7.58823 25.0058ZM7.5098 25.5112L7.55328 25.5359L7.55781 25.5279L7.55921 25.5188L7.5098 25.5112ZM6.84314 25.966L6.84184 26.017L6.85166 26.0153L6.84314 25.966ZM3.11765 25.7638L3.10668 25.8131L3.11346 25.8137L3.11765 25.7638ZM2.56863 25.4606L2.52932 25.4921L2.53378 25.4965L2.56863 25.4606ZM2.4902 26.1176L2.46964 26.072L2.43316 26.0885L2.44122 26.1277L2.4902 26.1176ZM7.5098 26.4714L7.55696 26.488L7.5783 26.4275L7.5144 26.4216L7.5098 26.4714ZM7.31373 27.0273L7.34269 27.0681L7.35561 27.0589L7.36088 27.0439L7.31373 27.0273ZM6.80392 27.3305L6.80142 27.3805L6.81425 27.3811L6.8258 27.3755L6.80392 27.3305ZM3.23529 27.0273L3.21753 27.0755L3.22937 27.077L3.23529 27.0273ZM11.1569 22.7315L11.1426 22.6836L11.1199 22.6904L11.1107 22.7122L11.1569 22.7315ZM11.0784 23.7423L11.0295 23.7546L11.0319 23.7607L11.0784 23.7423ZM11.5882 24.4498H11.6382V24.4211L11.6134 24.4067L11.5882 24.4498ZM11.5882 24.9047H11.5382L11.5382 24.9056L11.5882 24.9047ZM11.6275 27.1789L11.5775 27.1798L11.5783 27.2289H11.6275V27.1789ZM11.9412 27.1789L11.9912 27.1797L11.992 27.1289H11.9412V27.1789ZM14.6078 29.1499L14.6173 29.199L14.6578 29.1912V29.1499H14.6078ZM14.6078 28.1392L14.5578 28.1355V28.1392H14.6078ZM14.6863 27.0778L14.6575 27.0369L14.6382 27.0506L14.6364 27.0742L14.6863 27.0778ZM15.1176 26.7746L15.1464 26.8155L15.1592 26.8065L15.1646 26.7918L15.1176 26.7746ZM15.7451 25.0563L15.6991 25.0365L15.6981 25.0392L15.7451 25.0563ZM15.9412 24.6015L15.9064 24.5655L15.8992 24.5725L15.8953 24.5817L15.9412 24.6015ZM16.2549 24.2982V24.2482H16.2347L16.2202 24.2623L16.2549 24.2982ZM17.549 24.2982L17.5535 24.2482H17.549V24.2982ZM18.6078 24.5509L18.6412 24.5111L18.6282 24.5053L18.6078 24.5509ZM19.549 25.6122L19.5952 25.5917L19.5914 25.5857L19.549 25.6122ZM20.0196 26.9768L20.0687 26.9667L20.068 26.9643L20.0196 26.9768ZM20.2549 28.6445L20.205 28.648L20.2073 28.6808L20.2383 28.6917L20.2549 28.6445ZM20.6863 28.7962L20.6697 28.8433L20.6821 28.8477L20.6951 28.8454L20.6863 28.7962ZM24.0588 28.1897L24.0677 28.2389L24.1264 28.2283L24.1057 28.1724L24.0588 28.1897ZM23.8627 27.0273L23.8127 27.026V27.0273H23.8627ZM25.1569 23.1358L25.1422 23.088L25.1309 23.0915L25.1223 23.0997L25.1569 23.1358ZM26.098 23.1358L26.1203 23.0903L26.1124 23.0879L26.098 23.1358ZM27.0392 24.0961L27.0852 24.0762L27.0837 24.0732L27.0392 24.0961ZM27.4706 25.3595L27.5198 25.35L27.5189 25.3468L27.4706 25.3595ZM27.6667 27.28L27.6167 27.2801L27.6167 27.3154L27.6501 27.3272L27.6667 27.28ZM28.098 27.4316L28.0815 27.4788L28.0977 27.4845L28.1141 27.479L28.098 27.4316ZM28.8431 27.1789L28.8592 27.2263L28.8949 27.2142L28.8931 27.1765L28.8431 27.1789ZM28.8431 26.0671L28.7932 26.0642L28.7932 26.0645L28.8431 26.0671ZM29.0392 24.4498L29.0885 24.4583L29.0888 24.4566L29.0392 24.4498ZM29.3529 23.0348L29.3065 23.0153L29.3049 23.0208L29.3529 23.0348ZM29.8235 22.1756L29.8644 22.2048L29.8665 22.2011L29.8235 22.1756ZM30.1765 21.6702L30.1719 21.6204L30.1515 21.6223L30.1383 21.6379L30.1765 21.6702ZM30.7647 21.6197L30.7741 21.5706L30.7647 21.6197ZM31.2745 22.024L31.3186 21.9987L31.3128 21.9918L31.2745 22.024ZM31.6275 22.8326L31.6774 22.8247L31.6751 22.8176L31.6275 22.8326ZM31.7843 25.1068H31.8343L31.8343 25.1051L31.7843 25.1068ZM31.7843 26.4209H31.7343V26.4481L31.7572 26.4629L31.7843 26.4209ZM32.0196 26.5725L31.9925 26.6145L32.0109 26.6263L32.0321 26.6209L32.0196 26.5725ZM33 26.3198L33.0125 26.3682L33.05 26.3585V26.3198H33ZM33 24.3039H33.05L33.05 24.3038L33 24.3039ZM21.3922 21.3165L21.3447 21.3322L21.3572 21.3697L21.3965 21.3663L21.3922 21.3165ZM19.8627 4.99253L19.9126 4.9964L19.9136 4.98322L19.908 4.97126L19.8627 4.99253ZM20.3333 7.06461L20.3833 7.06272L20.3829 7.05213L20.3782 7.0426L20.3333 7.06461ZM16.3725 19.8508L16.3691 19.8008L16.3648 19.8014L16.3725 19.8508ZM15.4314 20.4573L15.3904 20.4283L15.3883 20.432L15.4314 20.4573ZM14.451 22.1251L14.4562 22.1748L14.4813 22.1722L14.4941 22.1504L14.451 22.1251ZM14.2549 26.623L14.2069 26.6089L14.2049 26.6158V26.623H14.2549ZM14.6863 25.1574L14.7342 25.1715L14.7369 25.1624L14.7361 25.153L14.6863 25.1574ZM14.9608 23.8939L14.9176 23.9192L14.9608 23.8939ZM16.3333 21.8218L16.3187 21.774L16.3333 21.8218ZM18.4902 21.6197L18.4883 21.6697L18.4902 21.6197ZM19.1961 21.6702L19.2144 21.6237L19.2076 21.621L19.2004 21.6204L19.1961 21.6702ZM19.7059 22.024L19.6681 22.0568L19.6683 22.0569L19.7059 22.024ZM20.098 22.5799L20.1474 22.566L20.1418 22.5557L20.098 22.5799ZM20.2941 23.1864L20.3429 23.1754L20.2941 23.1864ZM20.6863 26.1176L20.6373 26.1276L20.7358 26.1109L20.6863 26.1176ZM20.0196 23.2875L20.0672 23.2717L20.0656 23.268L20.0196 23.2875ZM19.549 22.5799L19.5848 22.545L19.5795 22.5395L19.5727 22.5359L19.549 22.5799ZM19.0392 22.3272L19.0162 22.3716L19.0162 22.3716L19.0392 22.3272ZM16.6471 22.7315L16.6818 22.7675L16.6471 22.7315ZM15.9412 23.7423L15.9884 23.7588L16.0211 23.6652L15.9264 23.6946L15.9412 23.7423ZM15.5882 24.7531L15.6354 24.7697L15.6354 24.7696L15.5882 24.7531ZM15.3922 25.309L15.345 25.2924L15.3448 25.2929L15.3922 25.309ZM15.1176 26.1176L15.1626 26.1408L15.165 26.1337L15.1176 26.1176ZM14.6863 26.623L14.7101 26.6673L14.7143 26.6644L14.6863 26.623ZM14.2549 26.7746H14.2049V26.835L14.2642 26.8237L14.2549 26.7746ZM32.5294 22.4788L32.5719 22.4525L32.4794 22.3035V22.4788H32.5294ZM32.5294 26.2187H32.4794V26.2904L32.5467 26.2656L32.5294 26.2187ZM32.8039 26.1176L32.8212 26.1645L32.8551 26.152L32.8539 26.1159L32.8039 26.1176ZM32.6863 22.7315L32.7362 22.7298L32.7358 22.7165L32.7288 22.7052L32.6863 22.7315ZM3.03922 27.3811L3.04289 27.3312L2.98922 27.3273V27.3811H3.03922ZM3.03922 27.8359H2.98922V27.8458L2.99298 27.855L3.03922 27.8359ZM3.54902 28.4424L3.53004 28.4908L3.5443 28.4922L3.54902 28.4424ZM6.21569 28.6951L6.21089 28.7457L6.21995 28.7449L6.21569 28.6951ZM6.64706 28.4424L6.68716 28.4723L6.69255 28.465L6.69507 28.4563L6.64706 28.4424ZM6.72549 27.8865L6.77549 27.8877V27.8865H6.72549ZM6.72549 27.7349H6.77549V27.6907L6.73169 27.6852L6.72549 27.7349ZM23.902 21.0982L23.8988 21.0482L23.8976 21.0484L23.902 21.0982ZM17.5098 28.6537L17.4595 28.6505L17.4599 28.6565L17.5098 28.6537ZM33 20.5251L33.05 20.5253L33.0502 20.4718L32.9969 20.4752L33 20.5251ZM32.9941 22.2842L32.9441 22.2841L32.9441 22.2844L32.9941 22.2842ZM30.0022 21.8933L29.9613 21.8645L29.9613 21.8645L30.0022 21.8933ZM26.3714 26.8576L26.3215 26.8551L26.3714 26.8576ZM29.8629 25.7111L29.8129 25.7115L29.8629 25.7111ZM1.46443 19.9599L1.42493 19.9292L1.46443 19.9599ZM1.47343 19.8368L1.43004 19.8617L1.47343 19.8368ZM1.41699 20.021L1.45649 20.0517L1.41699 20.021ZM17.5115 28.6281L17.4616 28.6247L17.5115 28.6281ZM29.8753 25.3256L29.8254 25.3216L29.8753 25.3256ZM30.7125 25.3697L30.7624 25.3668L30.7125 25.3697ZM1.29866 20.064L1.34753 20.0534L1.34753 20.0534L1.29866 20.064ZM1.66638 14.4631L1.31344 14.918L1.39244 14.9793L1.74538 14.5244L1.66638 14.4631ZM1.10686 17.1723C1.10686 17.1886 1.1128 17.2035 1.11727 17.2131C1.12236 17.224 1.12912 17.2355 1.13645 17.2467C1.15117 17.2693 1.17086 17.2949 1.19177 17.3203C1.23374 17.3714 1.28375 17.4255 1.31705 17.4598L1.38883 17.3902C1.35677 17.3571 1.30874 17.3051 1.26902 17.2568C1.24907 17.2325 1.232 17.2101 1.22017 17.192C1.21422 17.1829 1.21026 17.1759 1.20795 17.1709C1.20501 17.1646 1.20686 17.1661 1.20686 17.1723H1.10686ZM1.30326 17.4193L1.10719 19.1376L1.20654 19.149L1.40262 17.4307L1.30326 17.4193ZM1.11736 19.1127L0.999713 19.2643L1.07872 19.3256L1.19637 19.174L1.11736 19.1127ZM0.989216 19.2949V19.6487H1.08922V19.2949H0.989216ZM0.989629 19.6423L0.950413 19.9455L1.04959 19.9583L1.0888 19.6551L0.989629 19.6423ZM0.95 19.9519V21.8724H1.05V19.9519H0.95ZM0.952247 21.8872L1.03068 22.1399L1.12618 22.1103L1.04775 21.8576L0.952247 21.8872ZM1.06115 22.172L1.33566 22.2731L1.37022 22.1792L1.09571 22.0782L1.06115 22.172ZM1.39244 22.2568L1.47088 22.1557L1.39187 22.0944L1.31344 22.1955L1.39244 22.2568ZM1.48135 22.1266L1.52056 20.8632L1.42061 20.8601L1.3814 22.1235L1.48135 22.1266ZM1.51947 20.8511L1.34753 20.0534L1.24978 20.0745L1.42171 20.8722L1.51947 20.8511ZM1.45649 20.0517L1.50393 19.9905L1.42493 19.9292L1.37749 19.9903L1.45649 20.0517ZM1.51681 19.812C1.37762 19.569 1.27316 19.4381 1.07266 19.2578L1.00577 19.3321C1.19798 19.505 1.29586 19.6275 1.43004 19.8617L1.51681 19.812ZM1.30314 14.9441C1.2809 15.1906 1.2511 15.5221 1.22145 15.8539L1.32105 15.8628C1.3507 15.531 1.3805 15.1996 1.40274 14.9531L1.30314 14.9441ZM1.25973 15.907C1.45129 15.9523 1.59354 15.9988 1.72628 16.0713C1.85899 16.1438 1.98478 16.2438 2.14124 16.3992L2.2117 16.3282C2.05154 16.1692 1.91821 16.0622 1.77422 15.9836C1.63025 15.9049 1.4782 15.8559 1.28277 15.8096L1.25973 15.907ZM2.1284 16.3774C2.1986 16.623 2.19125 16.7602 2.16593 17.0158L2.26544 17.0256C2.29123 16.7653 2.29986 16.6134 2.22454 16.3499L2.1284 16.3774ZM1.22145 15.8539C1.1876 16.2325 1.15396 16.6116 1.13201 16.8648L1.23163 16.8734C1.25357 16.6203 1.28721 16.2414 1.32105 15.8628L1.22145 15.8539ZM1.13201 16.8648C1.12434 16.9532 1.11809 17.0263 1.11376 17.0788C1.10959 17.1293 1.10686 17.1641 1.10686 17.1723H1.20686C1.20686 17.1729 1.20688 17.1716 1.2072 17.1666C1.20748 17.1623 1.2079 17.1564 1.20846 17.1489C1.20959 17.134 1.21126 17.1131 1.21342 17.087C1.21774 17.0348 1.22397 16.9618 1.23163 16.8734L1.13201 16.8648ZM2.21593 16.9707C1.82928 16.9688 1.59017 16.921 1.1941 16.8206L1.16954 16.9175C1.56924 17.0188 1.81722 17.0687 2.21544 17.0707L2.21593 16.9707ZM8.9451 15.2044L7.41568 15.7098L7.44706 15.8047L8.97647 15.2993L8.9451 15.2044ZM7.3943 15.7237C7.3125 15.8141 7.25314 15.892 7.20802 15.9821C7.16294 16.0721 7.13336 16.1716 7.10778 16.3036L7.20595 16.3227C7.23062 16.1953 7.25798 16.1056 7.29743 16.0269C7.33685 15.9482 7.38962 15.8779 7.46844 15.7908L7.3943 15.7237ZM7.10686 16.3129C7.1058 16.5339 7.11256 16.6602 7.19238 16.7937L7.27821 16.7423C7.21429 16.6355 7.20579 16.5356 7.20686 16.3134L7.10686 16.3129ZM7.23002 16.8177C7.65918 16.8633 7.90531 16.871 8.09502 16.8633C8.18981 16.8594 8.26995 16.8517 8.35079 16.8432C8.43177 16.8346 8.5129 16.8253 8.6116 16.8179L8.60408 16.7181C8.50347 16.7257 8.42033 16.7353 8.34029 16.7437C8.26011 16.7522 8.18249 16.7596 8.09094 16.7634C7.90797 16.7708 7.66715 16.7636 7.24057 16.7183L7.23002 16.8177ZM8.65717 16.7762L8.77481 16.0687L8.67617 16.0523L8.55852 16.7598L8.65717 16.7762ZM8.7735 16.0744L9.00879 15.2658L8.91278 15.2379L8.67748 16.0465L8.7735 16.0744ZM8.86822 19.6414L9.65253 19.1866L9.60237 19.1001L8.81805 19.5549L8.86822 19.6414ZM9.61969 19.1927C9.67707 19.2017 9.69248 19.2133 9.6969 19.2192C9.70023 19.2237 9.7059 19.237 9.69611 19.2849L9.79409 19.3049C9.8042 19.2554 9.80869 19.2019 9.77706 19.1595C9.7465 19.1185 9.69313 19.103 9.63522 19.0939L9.61969 19.1927ZM9.6951 19.2943L9.65589 22.3266L9.75588 22.3279L9.79509 19.2956L9.6951 19.2943ZM9.65927 22.3091L9.58084 22.5113L9.67407 22.5475L9.7525 22.3453L9.65927 22.3091ZM9.67041 22.5038C9.5744 22.3426 9.48511 22.2326 9.37529 22.1515C9.26563 22.0706 9.1392 22.0214 8.9741 21.9758L8.94747 22.0722C9.10813 22.1166 9.2208 22.1618 9.31592 22.232C9.41087 22.3021 9.49203 22.3997 9.58449 22.555L9.67041 22.5038ZM9.00947 22.0126C8.91807 21.6221 8.9342 21.3738 8.9714 20.9162L8.87173 20.9081C8.83443 21.3668 8.81688 21.6286 8.9121 22.0354L9.00947 22.0126ZM8.96818 20.9302L9.5172 19.5152L9.42397 19.479L8.87495 20.8941L8.96818 20.9302ZM9.44968 19.4517L8.90066 19.7043L8.94247 19.7952L9.49149 19.5425L9.44968 19.4517ZM8.92157 19.6998H8.80392V19.7998H8.92157V19.6998ZM8.85233 19.7623L8.89154 19.6107L8.79473 19.5856L8.75551 19.7372L8.85233 19.7623ZM2.06007 19.5976C4.29647 19.5418 5.5566 19.5387 7.82223 19.5976L7.82483 19.4976C5.55738 19.4387 4.29554 19.4418 2.05758 19.4976L2.06007 19.5976ZM7.77368 19.5437C7.74253 19.9391 7.70029 20.1044 7.55087 20.2725L7.6256 20.3389C7.79836 20.1446 7.84199 19.9499 7.87337 19.5515L7.77368 19.5437ZM7.55872 20.2653C7.26303 20.4816 7.10272 20.5755 6.82087 20.7158L6.86541 20.8053C7.15214 20.6627 7.31732 20.5658 7.61775 20.3461L7.55872 20.2653ZM6.84372 20.7105C5.12262 20.6904 4.19741 20.6705 2.60976 20.6095L2.60592 20.7094C4.19466 20.7705 5.12079 20.7904 6.84255 20.8105L6.84372 20.7105ZM2.63379 20.6167C2.42887 20.4923 2.34374 20.4057 2.21734 20.2264L2.1356 20.284C2.2692 20.4735 2.3642 20.57 2.5819 20.7022L2.63379 20.6167ZM2.22384 20.2391C2.13587 19.9789 2.11494 19.8287 2.10881 19.5465L2.00884 19.5487C2.01514 19.8391 2.03731 19.9996 2.1291 20.2712L2.22384 20.2391ZM2.33451 21.2148C4.38417 21.1666 5.5365 21.1684 7.5871 21.2148L7.58937 21.1149C5.53732 21.0684 4.38345 21.0665 2.33216 21.1149L2.33451 21.2148ZM7.53851 21.1701C7.55861 21.3594 7.55569 21.4953 7.52668 21.6181C7.49769 21.7408 7.44179 21.854 7.35007 21.997L7.43424 22.051C7.52879 21.9036 7.59131 21.7794 7.624 21.6411C7.65665 21.5029 7.65864 21.3544 7.63796 21.1596L7.53851 21.1701ZM7.3659 21.9815C7.16261 22.1069 7.04483 22.1584 6.82766 22.2292L6.85862 22.3242C7.08258 22.2513 7.20771 22.1966 7.41841 22.0666L7.3659 21.9815ZM6.84266 22.2267C5.49548 22.2395 4.73963 22.2392 3.39262 22.2267L3.39169 22.3267C4.73931 22.3392 5.49578 22.3395 6.84361 22.3267L6.84266 22.2267ZM3.39559 22.2268C3.21876 22.2147 3.09128 22.1945 2.97743 22.1575C2.8639 22.1206 2.76141 22.0661 2.63553 21.9824L2.58015 22.0656C2.71039 22.1523 2.8213 22.2119 2.94651 22.2526C3.07141 22.2932 3.20803 22.3141 3.38873 22.3266L3.39559 22.2268ZM2.63716 21.9835C2.55023 21.9206 2.49621 21.8675 2.45424 21.8102C2.41177 21.7522 2.38014 21.6879 2.33962 21.599L2.24862 21.6404C2.28919 21.7295 2.32443 21.8022 2.37356 21.8693C2.42319 21.937 2.48548 21.9971 2.57852 22.0645L2.63716 21.9835ZM2.34412 21.6197V21.367H2.24412V21.6197H2.34412ZM2.3432 21.3765L2.38242 21.1744L2.28425 21.1553L2.24503 21.3575L2.3432 21.3765ZM2.33218 24.9041C4.39046 24.9515 5.54163 24.9841 7.58648 25.0557L7.58999 24.9558C5.5447 24.8841 4.39313 24.8515 2.33448 24.8042L2.33218 24.9041ZM7.53883 24.9981L7.46039 25.5035L7.55921 25.5188L7.63764 25.0134L7.53883 24.9981ZM7.46633 25.4865C7.38685 25.6263 7.31589 25.7168 7.22399 25.7808C7.13189 25.8449 7.01402 25.8857 6.83461 25.9167L6.85166 26.0153C7.03723 25.9832 7.17167 25.9391 7.28113 25.8629C7.39081 25.7865 7.4707 25.6812 7.55328 25.5359L7.46633 25.4865ZM6.84441 25.916C5.37467 25.8785 4.56188 25.8349 3.12183 25.714L3.11346 25.8137C4.55552 25.9348 5.37025 25.9785 6.84186 26.016L6.84441 25.916ZM3.12852 25.715C3.00921 25.6885 2.92374 25.6594 2.84605 25.6163C2.76815 25.573 2.69549 25.5142 2.60348 25.4248L2.53378 25.4965C2.62865 25.5887 2.70858 25.6543 2.79751 25.7037C2.88664 25.7532 2.98223 25.7849 3.10678 25.8127L3.12852 25.715ZM2.60764 25.4293C2.5335 25.3369 2.48819 25.2583 2.45603 25.1707C2.42352 25.0822 2.40372 24.9828 2.38275 24.8465L2.28392 24.8618C2.30503 24.9989 2.32599 25.1068 2.36217 25.2052C2.3987 25.3047 2.45 25.3926 2.52962 25.4919L2.60764 25.4293ZM2.51075 26.1632C2.50404 26.1662 2.49888 26.1665 2.50154 26.1661C2.50231 26.166 2.50421 26.1659 2.50768 26.1657C2.51449 26.1654 2.52461 26.1652 2.5383 26.1653C2.56552 26.1655 2.6044 26.1666 2.65405 26.1685C2.7532 26.1724 2.89362 26.1797 3.06588 26.1896C3.4103 26.2096 3.88108 26.2404 4.40155 26.2768C5.44255 26.3497 6.68159 26.4451 7.5052 26.5212L7.5144 26.4216C6.68972 26.3454 5.44983 26.25 4.40853 26.1771C3.88786 26.1406 3.41665 26.1098 3.07166 26.0898C2.89921 26.0798 2.75806 26.0725 2.65796 26.0686C2.60798 26.0667 2.56782 26.0655 2.53897 26.0653C2.52462 26.0652 2.51245 26.0654 2.50302 26.0658C2.49836 26.066 2.49366 26.0663 2.48936 26.0669C2.48696 26.0672 2.47828 26.0681 2.46964 26.072L2.51075 26.1632ZM7.46265 26.4548L7.26657 27.0107L7.36088 27.0439L7.55696 26.488L7.46265 26.4548ZM7.28476 26.9866C7.10637 27.1133 6.99914 27.1799 6.78204 27.2856L6.8258 27.3755C7.04838 27.2672 7.16033 27.1977 7.34269 27.0681L7.28476 26.9866ZM6.80643 27.2806C5.41942 27.211 4.63972 27.1444 3.24121 26.9777L3.22937 27.077C4.63009 27.244 5.41207 27.3108 6.80142 27.3805L6.80643 27.2806ZM3.23529 27.0273C3.25257 26.9804 3.25258 26.9804 3.25259 26.9804C3.25259 26.9804 3.2526 26.9804 3.2526 26.9804C3.25261 26.9804 3.25261 26.9804 3.25261 26.9804C3.2526 26.9804 3.25258 26.9804 3.25254 26.9804C3.25247 26.9804 3.25233 26.9803 3.25212 26.9802C3.25172 26.9801 3.25106 26.9798 3.25015 26.9795C3.24835 26.9788 3.24558 26.9777 3.24193 26.9762C3.23464 26.9733 3.22388 26.9688 3.2104 26.9627C3.18341 26.9506 3.14571 26.9324 3.10328 26.9081C3.01776 26.8591 2.91619 26.7872 2.84342 26.6934L2.76442 26.7547C2.84852 26.8631 2.96263 26.9428 3.05358 26.9949C3.09939 27.0211 3.14012 27.0408 3.1695 27.054C3.18421 27.0606 3.19611 27.0656 3.20445 27.0689C3.20862 27.0706 3.2119 27.0719 3.21419 27.0728C3.21534 27.0732 3.21624 27.0736 3.21688 27.0738C3.2172 27.0739 3.21746 27.074 3.21765 27.0741C3.21774 27.0741 3.21782 27.0742 3.21788 27.0742C3.21791 27.0742 3.21794 27.0742 3.21796 27.0742C3.21797 27.0742 3.21799 27.0742 3.21799 27.0742C3.21801 27.0742 3.21802 27.0742 3.23529 27.0273ZM2.84342 26.6934C2.68703 26.4919 2.59549 26.3812 2.53917 26.1075L2.44122 26.1277C2.50254 26.4257 2.60709 26.552 2.76442 26.7547L2.84342 26.6934ZM11.1107 22.7122C11.0333 22.897 10.9847 23.0484 10.9702 23.2094C10.9557 23.3706 10.9756 23.5379 11.0299 23.7545L11.1269 23.7302C11.0742 23.5196 11.0567 23.3644 11.0698 23.2184C11.083 23.0723 11.1271 22.9319 11.203 22.7509L11.1107 22.7122ZM11.0319 23.7607C11.1101 23.9586 11.1775 24.104 11.2581 24.2187C11.3398 24.3347 11.4339 24.4176 11.563 24.493L11.6134 24.4067C11.4951 24.3376 11.4123 24.2641 11.3399 24.1611C11.2665 24.0568 11.2027 23.9207 11.1249 23.7239L11.0319 23.7607ZM11.5382 24.4498V24.9047H11.6382V24.4498H11.5382ZM11.5382 24.9056L11.5775 27.1798L11.6774 27.1781L11.6382 24.9038L11.5382 24.9056ZM11.6275 27.2289H11.9412V27.1289H11.6275V27.2289ZM11.8912 27.1781C11.8846 27.591 11.8768 28.2103 11.8745 28.7264C11.8734 28.9845 11.8736 29.217 11.8761 29.3852C11.8774 29.4692 11.8792 29.5377 11.8817 29.5854C11.883 29.6091 11.8844 29.6287 11.8863 29.643C11.8871 29.6497 11.8883 29.6573 11.8902 29.6641C11.8911 29.6671 11.8929 29.6731 11.8966 29.6794C11.8981 29.682 11.9115 29.7053 11.9412 29.7053V29.6053C11.9699 29.6053 11.9823 29.6278 11.9829 29.6289C11.9845 29.6315 11.9853 29.6337 11.9858 29.6348C11.9862 29.6359 11.9864 29.6367 11.9865 29.637C11.9866 29.6375 11.9862 29.6357 11.9855 29.6302C11.9841 29.6198 11.9828 29.6032 11.9816 29.5801C11.9791 29.5343 11.9773 29.4674 11.9761 29.3837C11.9736 29.2165 11.9734 28.9848 11.9745 28.7269C11.9768 28.2112 11.9846 27.5923 11.9912 27.1797L11.8912 27.1781ZM11.9412 29.7053C11.9468 29.7053 11.9539 29.7042 11.9565 29.7038C11.9613 29.7031 11.9675 29.7021 11.975 29.7008C11.9901 29.6982 12.0113 29.6945 12.0377 29.6897C12.0907 29.6801 12.1656 29.6663 12.2571 29.6492C12.4402 29.615 12.6905 29.5676 12.9672 29.5149C13.5205 29.4096 14.1794 29.2833 14.6173 29.199L14.5984 29.1008C14.1605 29.1851 13.5017 29.3114 12.9485 29.4167C12.6719 29.4693 12.4217 29.5167 12.2387 29.5509C12.1472 29.568 12.0726 29.5818 12.02 29.5913C11.9936 29.5961 11.9729 29.5997 11.9583 29.6022C11.951 29.6034 11.9455 29.6043 11.9417 29.6049C11.9357 29.6058 11.9375 29.6053 11.9412 29.6053V29.7053ZM14.6578 29.1499V28.1392H14.5578V29.1499H14.6578ZM14.6577 28.1428L14.7361 27.0815L14.6364 27.0742L14.558 28.1355L14.6577 28.1428ZM14.715 27.1188L15.1464 26.8155L15.0889 26.7337L14.6575 27.0369L14.715 27.1188ZM15.1646 26.7918L15.7921 25.0735L15.6981 25.0392L15.0707 26.7575L15.1646 26.7918ZM15.791 25.0761L15.9871 24.6213L15.8953 24.5817L15.6992 25.0365L15.791 25.0761ZM15.9759 24.6374L16.2897 24.3342L16.2202 24.2623L15.9064 24.5655L15.9759 24.6374ZM16.2549 24.3482H17.549V24.2482H16.2549V24.3482ZM17.5446 24.348C17.9899 24.3876 18.2212 24.4329 18.5874 24.5966L18.6282 24.5053C18.2487 24.3357 18.0057 24.2886 17.5534 24.2484L17.5446 24.348ZM18.5758 24.5893C19.012 24.954 19.2189 25.1796 19.5067 25.6388L19.5914 25.5857C19.2972 25.1163 19.0829 24.883 18.6399 24.5126L18.5758 24.5893ZM19.5033 25.6325C19.7319 26.1471 19.8294 26.4392 19.9712 26.9893L20.068 26.9643C19.925 26.4095 19.8257 26.1121 19.5947 25.5919L19.5033 25.6325ZM19.9706 26.9868C20.1073 27.6547 20.1616 28.0189 20.205 28.648L20.3048 28.6411C20.261 28.0069 20.206 27.6381 20.0686 26.9667L19.9706 26.9868ZM20.2383 28.6917L20.6697 28.8433L20.7029 28.749L20.2715 28.5974L20.2383 28.6917ZM20.6951 28.8454L24.0677 28.2389L24.05 28.1405L20.6774 28.7469L20.6951 28.8454ZM24.1057 28.1724C23.9564 27.7685 23.9127 27.4772 23.9127 27.0273H23.8127C23.8127 27.4871 23.8579 27.7904 24.0119 28.207L24.1057 28.1724ZM25.1715 23.1837C25.3545 23.1276 25.4933 23.1017 25.6296 23.1023C25.7661 23.1028 25.9034 23.1298 26.0837 23.1838L26.1124 23.0879C25.9278 23.0327 25.7801 23.0029 25.63 23.0023C25.4798 23.0017 25.3304 23.0304 25.1422 23.088L25.1715 23.1837ZM26.076 23.1807C26.3083 23.2945 26.4713 23.4014 26.609 23.5421C26.747 23.683 26.862 23.8604 26.9947 24.1189L27.0837 24.0732C26.949 23.811 26.8286 23.6235 26.6804 23.4721C26.5319 23.3204 26.358 23.2075 26.12 23.0909L26.076 23.1807ZM26.9933 24.1159C27.1985 24.5915 27.2894 24.8668 27.4222 25.3723L27.5189 25.3468C27.385 24.8372 27.2926 24.5571 27.0851 24.0763L26.9933 24.1159ZM27.4215 25.3691C27.5638 26.1006 27.6155 26.5157 27.6167 27.2801L27.7167 27.2799C27.7155 26.5081 27.6629 26.0866 27.5197 25.35L27.4215 25.3691ZM27.6501 27.3272L28.0815 27.4788L28.1146 27.3844L27.6832 27.2328L27.6501 27.3272ZM28.1141 27.479L28.8592 27.2263L28.8271 27.1316L28.082 27.3843L28.1141 27.479ZM28.8931 27.1765C28.8724 26.7551 28.8705 26.5122 28.8931 26.0696L28.7932 26.0645C28.7705 26.5107 28.7723 26.7569 28.7932 27.1814L28.8931 27.1765ZM28.8931 26.07C28.9302 25.4291 28.9826 25.0801 29.0885 24.4582L28.9899 24.4415C28.8837 25.0651 28.8306 25.4181 28.7932 26.0642L28.8931 26.07ZM29.0888 24.4566C29.1639 23.9009 29.2421 23.5951 29.401 23.0487L29.3049 23.0208C29.1453 23.5698 29.0658 23.8808 28.9897 24.4431L29.0888 24.4566ZM29.3991 23.0541C29.5483 22.6981 29.6457 22.5106 29.8642 22.2047L29.7828 22.1466C29.5591 22.4597 29.4583 22.654 29.3068 23.0154L29.3991 23.0541ZM30.1811 21.72C30.272 21.7117 30.4132 21.6974 30.5322 21.6862C30.5923 21.6806 30.6473 21.6757 30.6891 21.6726C30.7101 21.671 30.7273 21.6699 30.74 21.6694C30.7464 21.6692 30.7513 21.6691 30.7546 21.6691C30.7591 21.6691 30.7583 21.6694 30.7553 21.6688L30.7741 21.5706C30.7672 21.5693 30.7599 21.5691 30.7554 21.5691C30.7497 21.5691 30.7432 21.5692 30.736 21.5695C30.7216 21.5701 30.7031 21.5713 30.6817 21.5729C30.6389 21.576 30.5831 21.581 30.5229 21.5866C30.4014 21.598 30.264 21.612 30.1719 21.6204L30.1811 21.72ZM30.7553 21.6688C30.7552 21.6688 30.7558 21.6689 30.7573 21.6694C30.7587 21.6698 30.7605 21.6705 30.7629 21.6715C30.7678 21.6736 30.7739 21.6765 30.7814 21.6806C30.7963 21.6887 30.8148 21.7001 30.836 21.7144C30.8783 21.743 30.9293 21.7813 30.9814 21.8231C31.0865 21.9076 31.191 22.0023 31.2362 22.0562L31.3128 21.9918C31.2609 21.9301 31.1499 21.8302 31.044 21.7452C30.9906 21.7023 30.9373 21.6621 30.8919 21.6315C30.8692 21.6162 30.8479 21.6029 30.8291 21.5927C30.8116 21.5832 30.792 21.574 30.7741 21.5706L30.7553 21.6688ZM31.2311 22.0489C31.3964 22.337 31.4733 22.5094 31.5798 22.8476L31.6751 22.8176C31.5666 22.4725 31.4868 22.2935 31.3179 21.9991L31.2311 22.0489ZM31.5781 22.8405C31.6279 23.1536 31.6445 23.3278 31.6559 23.643L31.7559 23.6394C31.7443 23.3202 31.7273 23.142 31.6768 22.8248L31.5781 22.8405ZM31.656 23.6449C31.6977 24.2074 31.7136 24.5267 31.7343 25.1086L31.8343 25.1051C31.8135 24.5222 31.7975 24.2016 31.7557 23.6375L31.656 23.6449ZM31.7343 25.1068V26.4209H31.8343V25.1068H31.7343ZM31.7572 26.4629L31.9925 26.6145L32.0467 26.5304L31.8114 26.3788L31.7572 26.4629ZM32.0321 26.6209L33.0125 26.3682L32.9875 26.2714L32.0071 26.524L32.0321 26.6209ZM33.05 26.3198V24.3039H32.95V26.3198H33.05ZM18.1312 1.42556L19.8175 5.0138L19.908 4.97126L18.2217 1.38303L18.1312 1.42556ZM19.8129 4.98866C19.7998 5.15741 19.7821 5.41316 19.7716 5.63197C19.7664 5.74129 19.7629 5.842 19.7627 5.91822C19.7627 5.95621 19.7634 5.98904 19.7653 6.01417C19.7662 6.02664 19.7675 6.03834 19.7694 6.0483C19.7703 6.05328 19.7716 6.05874 19.7734 6.06409C19.775 6.06879 19.778 6.07678 19.784 6.08449L19.863 6.02318C19.8653 6.02606 19.8665 6.02851 19.8672 6.02979C19.8678 6.03115 19.8681 6.03206 19.8682 6.03229C19.8683 6.03266 19.8681 6.03194 19.8676 6.02961C19.8667 6.02495 19.8658 6.01748 19.865 6.00672C19.8634 5.98539 19.8627 5.95553 19.8627 5.91844C19.8629 5.84452 19.8663 5.74561 19.8715 5.63676C19.8819 5.41927 19.8995 5.16457 19.9126 4.9964L19.8129 4.98866ZM19.784 6.08449C19.7837 6.08405 19.7852 6.08622 19.7895 6.09352C19.7933 6.09996 19.7981 6.10868 19.8041 6.11962C19.8159 6.14144 19.8315 6.17105 19.8499 6.20676C19.8868 6.27813 19.9347 6.37298 19.9867 6.47673C20.0905 6.6842 20.21 6.92665 20.2884 7.08661L20.3782 7.0426C20.2998 6.88249 20.1801 6.63977 20.0761 6.43198C20.0241 6.3281 19.9759 6.2328 19.9388 6.16087C19.9202 6.12493 19.9043 6.09461 19.8919 6.07188C19.8807 6.05116 19.87 6.03222 19.863 6.02318L19.784 6.08449ZM20.2834 7.06649L20.754 19.5495L20.8539 19.5457L20.3833 7.06272L20.2834 7.06649ZM20.8005 19.4977L16.3691 19.801L16.376 19.9007L20.8073 19.5975L20.8005 19.4977ZM16.3648 19.8014C16.1282 19.8383 15.9542 19.8941 15.8035 19.9934C15.6532 20.0923 15.53 20.2317 15.3906 20.4284L15.4722 20.4862C15.609 20.2931 15.7236 20.1656 15.8584 20.0769C15.9928 19.9885 16.1513 19.9359 16.3803 19.9002L16.3648 19.8014ZM15.3883 20.432L14.4079 22.0997L14.4941 22.1504L15.4745 20.4826L15.3883 20.432ZM14.4458 22.0753C13.0897 22.2168 12.3469 22.3247 11.1426 22.6836L11.1711 22.7795C12.3671 22.423 13.103 22.316 14.4562 22.1748L14.4458 22.0753ZM14.3029 26.6371L14.7342 25.1715L14.6383 25.1433L14.2069 26.6089L14.3029 26.6371ZM14.7361 25.153C14.7283 25.0643 14.744 24.9504 14.773 24.8242C14.8019 24.6989 14.843 24.5655 14.8837 24.4391C14.9239 24.3137 14.9642 24.1937 14.9898 24.0985C15.0026 24.0509 15.0124 24.0074 15.0166 23.9711C15.0187 23.953 15.0196 23.9352 15.0183 23.9189C15.017 23.903 15.0134 23.8849 15.0039 23.8687L14.9176 23.9192C14.9165 23.9173 14.9179 23.9187 14.9186 23.9268C14.9192 23.9344 14.9189 23.9452 14.9173 23.9597C14.9139 23.9886 14.9057 24.0265 14.8933 24.0725C14.8684 24.1646 14.8295 24.2808 14.7884 24.4085C14.7478 24.5352 14.7055 24.672 14.6756 24.8018C14.6459 24.9308 14.6273 25.0571 14.6365 25.1618L14.7361 25.153ZM15.0039 23.8687C15.0061 23.8723 15.0039 23.871 15.0039 23.858C15.0038 23.8464 15.0054 23.8304 15.0091 23.8096C15.0166 23.7681 15.0314 23.7137 15.0521 23.6498C15.0935 23.5225 15.1567 23.3635 15.225 23.2078C15.2932 23.0521 15.3658 22.9009 15.4259 22.7893C15.456 22.7334 15.4823 22.6884 15.5029 22.6581C15.5134 22.6428 15.5213 22.6327 15.5266 22.6271C15.5294 22.6242 15.5301 22.624 15.529 22.6247C15.5289 22.6247 15.5207 22.6306 15.5072 22.6299L15.5125 22.53C15.4942 22.529 15.4804 22.5369 15.4738 22.5413C15.4662 22.5463 15.4596 22.5525 15.4542 22.5581C15.4433 22.5696 15.4318 22.5848 15.4202 22.6019C15.3967 22.6365 15.3685 22.6849 15.3378 22.742C15.2762 22.8565 15.2023 23.0102 15.1334 23.1677C15.0645 23.325 14.9999 23.4873 14.957 23.6189C14.9357 23.6845 14.9193 23.744 14.9107 23.792C14.9064 23.8159 14.9038 23.8385 14.9039 23.8583C14.9039 23.8767 14.9062 23.8997 14.9176 23.9192L15.0039 23.8687ZM15.5072 22.6299C15.5192 22.6305 15.5295 22.6274 15.5358 22.6251C15.5428 22.6225 15.5495 22.6191 15.5555 22.6157C15.5674 22.6089 15.5806 22.5996 15.5943 22.589C15.6219 22.5678 15.656 22.5379 15.6938 22.5031C15.7697 22.4332 15.8641 22.3397 15.9577 22.2462C16.0517 22.1522 16.1448 22.0583 16.2192 21.9862C16.2564 21.9502 16.2883 21.9202 16.3129 21.8987C16.3253 21.8879 16.3352 21.8798 16.3426 21.8743C16.3519 21.8674 16.3526 21.8682 16.348 21.8697L16.3187 21.774C16.305 21.7782 16.2918 21.7875 16.2831 21.7939C16.2726 21.8017 16.2604 21.8118 16.2471 21.8234C16.2205 21.8466 16.1871 21.878 16.1496 21.9144C16.0745 21.9872 15.9804 22.0821 15.887 22.1754C15.7933 22.2691 15.7002 22.3612 15.626 22.4295C15.5889 22.4638 15.5573 22.4913 15.5333 22.5098C15.5211 22.5192 15.512 22.5253 15.5058 22.5289C15.5027 22.5307 15.5013 22.5313 15.5013 22.5312C15.5014 22.5312 15.5023 22.5309 15.5039 22.5306C15.5054 22.5302 15.5084 22.5298 15.5125 22.53L15.5072 22.6299ZM16.348 21.8697C16.3479 21.8697 16.3482 21.8696 16.3488 21.8694C16.3495 21.8692 16.3503 21.869 16.3513 21.8687C16.3534 21.8681 16.3563 21.8674 16.3598 21.8664C16.3668 21.8646 16.3764 21.8621 16.3882 21.859C16.412 21.853 16.4446 21.8447 16.4837 21.8351C16.562 21.8158 16.6661 21.7909 16.7766 21.7662C16.8872 21.7416 17.0037 21.7174 17.107 21.6993C17.2114 21.681 17.2989 21.6697 17.3529 21.6697L17.3529 21.5697C17.2893 21.5697 17.1942 21.5825 17.0898 21.6008C16.9844 21.6192 16.8662 21.6438 16.7549 21.6686C16.533 21.7181 16.3352 21.769 16.3187 21.774L16.348 21.8697ZM17.3529 21.6697C17.5898 21.6697 18.372 21.6653 18.4883 21.6697L18.492 21.5697C18.3732 21.5653 17.5867 21.5697 17.3529 21.5697L17.3529 21.6697ZM18.4883 21.6697C18.5811 21.6731 18.9957 21.7032 19.1918 21.72L19.2004 21.6204C19.0043 21.6036 18.5875 21.5733 18.492 21.5697L18.4883 21.6697ZM19.1778 21.7168C19.2935 21.7622 19.3763 21.8022 19.4496 21.8527C19.5227 21.9029 19.5884 21.965 19.6681 22.0568L19.7436 21.9912C19.6607 21.8957 19.5887 21.827 19.5063 21.7703C19.424 21.7137 19.3332 21.6704 19.2144 21.6237L19.1778 21.7168ZM19.6683 22.0569C19.8452 22.2589 19.9302 22.3797 20.0543 22.6041L20.1418 22.5557C20.0142 22.3248 19.9249 22.1982 19.7435 21.9911L19.6683 22.0569ZM20.0499 22.5935C20.0749 22.6819 20.1216 22.8225 20.163 22.9459C20.1838 23.0079 20.2032 23.0656 20.2183 23.1111C20.2337 23.1579 20.2433 23.1881 20.2453 23.1974L20.3429 23.1754C20.3394 23.1601 20.3278 23.1239 20.3132 23.0797C20.2981 23.034 20.2785 22.9758 20.2578 22.9141C20.2162 22.79 20.1703 22.6519 20.1462 22.5663L20.0499 22.5935ZM20.2453 23.1974C20.2453 23.1973 20.2465 23.2043 20.249 23.2222C20.2514 23.2386 20.2546 23.2617 20.2586 23.2909C20.2666 23.3492 20.2777 23.4316 20.2911 23.5324C20.3181 23.7339 20.3546 24.0091 20.3949 24.313C20.4755 24.9209 20.5714 25.6441 20.6367 26.1244L20.7358 26.1109C20.6705 25.6309 20.5746 24.9079 20.494 24.2999C20.4537 23.996 20.4172 23.7207 20.3903 23.5191C20.3768 23.4183 20.3657 23.3358 20.3577 23.2773C20.3499 23.221 20.3446 23.183 20.3429 23.1754L20.2453 23.1974ZM20.7353 26.1077C20.5087 24.9911 20.4213 24.3431 20.0671 23.2718L19.9721 23.3032C20.3239 24.3671 20.4098 25.0065 20.6373 26.1276L20.7353 26.1077ZM20.0656 23.268C19.9322 22.953 19.8302 22.7969 19.5848 22.545L19.5132 22.6148C19.7498 22.8576 19.8449 23.0033 19.9736 23.307L20.0656 23.268ZM19.5727 22.5359C19.4933 22.4932 19.3722 22.4334 19.2681 22.3827C19.1627 22.3314 19.0761 22.29 19.0623 22.2829L19.0162 22.3716C19.0315 22.3795 19.1213 22.4224 19.2243 22.4726C19.3286 22.5234 19.4479 22.5824 19.5254 22.624L19.5727 22.5359ZM19.0623 22.2829C19.0154 22.2585 18.9475 22.2435 18.869 22.2343C18.7892 22.225 18.6933 22.2213 18.5871 22.2224C18.3746 22.2248 18.1177 22.247 17.8593 22.2853C17.601 22.3237 17.3398 22.3785 17.1191 22.4466C16.9009 22.5141 16.7141 22.597 16.6123 22.6956L16.6818 22.7675C16.7653 22.6866 16.9317 22.6092 17.1487 22.5422C17.3632 22.4759 17.6191 22.4221 17.874 22.3842C18.1288 22.3464 18.3812 22.3248 18.5882 22.3224C18.6918 22.3213 18.7832 22.325 18.8574 22.3336C18.933 22.3424 18.986 22.3559 19.0162 22.3716L19.0623 22.2829ZM16.6123 22.6956C16.4227 22.8793 16.2399 23.1371 16.1072 23.3466C16.0406 23.4516 15.9861 23.5454 15.9491 23.6128C15.9306 23.6464 15.9163 23.6739 15.907 23.6931C15.9024 23.7025 15.8985 23.7109 15.896 23.7174C15.895 23.72 15.893 23.7252 15.8918 23.7308C15.8916 23.7317 15.8892 23.7419 15.8922 23.754C15.8939 23.761 15.8993 23.7759 15.9157 23.7855C15.9324 23.7952 15.9484 23.7924 15.956 23.7901L15.9264 23.6946C15.9337 23.6923 15.9496 23.6895 15.9661 23.6991C15.9823 23.7086 15.9876 23.7233 15.9893 23.7301C15.991 23.7371 15.9907 23.7427 15.9906 23.7449C15.9904 23.7477 15.99 23.7498 15.9898 23.7509C15.9891 23.7543 15.9883 23.756 15.9891 23.754C15.9901 23.7512 15.9926 23.7456 15.9969 23.7368C16.0053 23.7196 16.0187 23.6938 16.0368 23.6609C16.0728 23.5953 16.1262 23.5034 16.1917 23.4001C16.323 23.1927 16.5008 22.9428 16.6818 22.7675L16.6123 22.6956ZM15.894 23.7258L15.541 24.7366L15.6354 24.7696L15.9884 23.7588L15.894 23.7258ZM15.5411 24.7364L15.345 25.2924L15.4393 25.3256L15.6354 24.7697L15.5411 24.7364ZM15.3448 25.2929L15.0703 26.1015L15.165 26.1337L15.4395 25.3251L15.3448 25.2929ZM15.0732 26.0947C15.0123 26.2131 14.9617 26.2983 14.9004 26.3719C14.8394 26.4451 14.7662 26.5087 14.6583 26.5816L14.7143 26.6644C14.8275 26.588 14.9085 26.5183 14.9772 26.4359C15.0456 26.3538 15.1001 26.261 15.1621 26.1405L15.0732 26.0947ZM14.6626 26.579C14.5156 26.658 14.4271 26.6911 14.2456 26.7255L14.2642 26.8237C14.4559 26.7874 14.554 26.7509 14.71 26.667L14.6626 26.579ZM14.3049 26.7746V26.623H14.2049V26.7746H14.3049ZM32.4794 22.4788V26.2187H32.5794V22.4788H32.4794ZM32.5467 26.2656L32.8212 26.1645L32.7866 26.0707L32.5121 26.1718L32.5467 26.2656ZM32.8539 26.1159L32.7362 22.7298L32.6363 22.7333L32.754 26.1194L32.8539 26.1159ZM32.7288 22.7052L32.5719 22.4525L32.4869 22.5052L32.6438 22.7579L32.7288 22.7052ZM2.98922 27.3811V27.8359H3.08922V27.3811H2.98922ZM2.99298 27.855C3.0681 28.0375 3.13465 28.1702 3.2168 28.2701C3.30037 28.3717 3.39803 28.4369 3.53078 28.4889L3.56726 28.3958C3.44721 28.3488 3.36477 28.2925 3.29403 28.2065C3.22188 28.1188 3.15992 27.9978 3.08545 27.8169L2.99298 27.855ZM3.5443 28.4922L6.21097 28.7449L6.2204 28.6453L3.55374 28.3926L3.5443 28.4922ZM6.21995 28.7449C6.32052 28.7363 6.40167 28.7191 6.47674 28.6764C6.55143 28.6338 6.61547 28.5685 6.68716 28.4723L6.60696 28.4125C6.53877 28.5041 6.48455 28.5568 6.42723 28.5895C6.3703 28.6219 6.30571 28.6372 6.21142 28.6453L6.21995 28.7449ZM6.69507 28.4563C6.75849 28.2383 6.77016 28.1111 6.77548 27.8877L6.6755 27.8853C6.67031 28.1032 6.6593 28.2212 6.59905 28.4284L6.69507 28.4563ZM6.77549 27.8865V27.7349H6.67549V27.8865H6.77549ZM6.73169 27.6852C5.44318 27.5243 4.62546 27.4477 3.04289 27.3312L3.03554 27.4309C4.61694 27.5474 5.43291 27.6238 6.71929 27.7845L6.73169 27.6852ZM23.8976 21.0484L21.3878 21.2667L21.3965 21.3663L23.9063 21.148L23.8976 21.0484ZM25.1223 23.0997C24.6312 23.5693 24.3157 24.0398 24.1173 24.6508C23.9195 25.26 23.8389 26.0064 23.8128 27.026L23.9127 27.0286C23.9388 26.0112 24.0192 25.2767 24.2124 24.6817C24.4049 24.0886 24.7104 23.6318 25.1914 23.172L25.1223 23.0997ZM17.4616 28.6247C17.461 28.6333 17.4605 28.6419 17.4599 28.6505L17.5597 28.6569C17.5602 28.6483 17.5608 28.6398 17.5614 28.6314L17.4616 28.6247ZM17.4599 28.6565C17.4609 28.6739 17.4619 28.6912 17.4629 28.7082L17.5627 28.7021C17.5617 28.6853 17.5607 28.6682 17.5597 28.6509L17.4599 28.6565ZM26.4213 26.8601C26.4217 26.8523 26.4221 26.8446 26.4225 26.8368L26.3226 26.8319C26.3222 26.8396 26.3218 26.8474 26.3215 26.8551L26.4213 26.8601ZM29.8254 25.3216C29.817 25.4273 29.8127 25.5439 29.8127 25.6719H29.9127C29.9127 25.5461 29.9169 25.4322 29.9251 25.3295L29.8254 25.3216ZM29.8127 25.6719C29.8127 25.6853 29.8128 25.6984 29.8129 25.7115L29.9129 25.7108C29.9128 25.698 29.9127 25.685 29.9127 25.6719H29.8127ZM30.7755 25.6704C30.7721 25.5603 30.7679 25.4593 30.7624 25.3668L30.6626 25.3726C30.668 25.4639 30.6721 25.564 30.6755 25.6735L30.7755 25.6704ZM32.9969 20.4752L23.8988 21.0483L23.9051 21.1481L33.0031 20.575L32.9969 20.4752ZM20.7565 19.5634L21.3447 21.3322L21.4396 21.3007L20.8514 19.5318L20.7565 19.5634ZM33.05 24.3038L33.0441 22.2841L32.9441 22.2844L32.95 24.3041L33.05 24.3038ZM33.0441 22.2844L33.05 20.5253L32.95 20.5249L32.9441 22.2841L33.0441 22.2844ZM29.8665 22.2011C29.9338 22.0875 29.9855 22.0038 30.0431 21.9221L29.9613 21.8645C29.9014 21.9495 29.8481 22.036 29.7805 22.1501L29.8665 22.2011ZM30.0431 21.9221C30.0915 21.8533 30.1444 21.7855 30.2146 21.7025L30.1383 21.6379C30.0667 21.7226 30.0118 21.7928 29.9613 21.8645L30.0431 21.9221ZM30.0042 21.9433C30.4629 21.9244 30.7717 22.0138 31.0171 22.2686C31.2666 22.5277 31.4565 22.9633 31.6579 23.6552L31.7539 23.6273C31.5525 22.9351 31.3573 22.4777 31.0891 22.1992C30.8167 21.9164 30.4751 21.8238 30.0001 21.8433L30.0042 21.9433ZM25.303 26.8367C25.3264 27.3259 25.5794 27.604 25.8602 27.6107C26.1427 27.6174 26.3969 27.3492 26.4213 26.8601L26.3215 26.8551C26.2983 27.3188 26.0661 27.5156 25.8626 27.5107C25.6575 27.5058 25.4251 27.2958 25.4029 26.8319L25.303 26.8367ZM25.4028 26.8374C25.4306 26.3872 25.6611 26.189 25.8646 26.1889C26.0679 26.1889 26.2972 26.3868 26.3226 26.8371L26.4225 26.8315C26.3956 26.3545 26.1437 26.0889 25.8646 26.0889C25.5856 26.089 25.3325 26.3544 25.303 26.8312L25.4028 26.8374ZM17.4629 28.7082C17.4946 29.2301 17.7947 29.4989 18.1127 29.482C18.4282 29.4652 18.719 29.1683 18.7362 28.6462L18.6363 28.6429C18.6202 29.131 18.3549 29.3689 18.1073 29.3821C17.8622 29.3952 17.5923 29.1891 17.5627 28.7021L17.4629 28.7082ZM29.8129 25.7115C29.8144 25.9321 29.8695 26.1009 29.9572 26.2146C30.0454 26.3289 30.1658 26.386 30.2898 26.3802C30.5395 26.3686 30.7632 26.1117 30.7755 25.6733L30.6755 25.6705C30.6639 26.0836 30.4593 26.2722 30.2851 26.2803C30.1971 26.2844 30.1068 26.2448 30.0364 26.1536C29.9655 26.0617 29.9143 25.9161 29.9129 25.7108L29.8129 25.7115ZM1.50393 19.9905C1.54365 19.9393 1.54938 19.8688 1.51681 19.812L1.43004 19.8617C1.44211 19.8827 1.44025 19.9095 1.42493 19.9292L1.50393 19.9905ZM1.32885 20.0645C1.36725 20.0975 1.42545 20.0917 1.45649 20.0517L1.37749 19.9903C1.38151 19.9852 1.38904 19.9844 1.39402 19.9887L1.32885 20.0645ZM17.5614 28.6314C17.5932 28.1552 17.8662 27.9403 18.1149 27.9438C18.363 27.9472 18.6259 28.1686 18.6363 28.6456L18.7363 28.6435C18.7251 28.1294 18.4336 27.8481 18.1162 27.8438C17.7994 27.8394 17.4958 28.1119 17.4616 28.6247L17.5614 28.6314ZM29.9251 25.3295C29.9506 25.0103 30.1333 24.8809 30.2964 24.8899C30.462 24.899 30.6437 25.0521 30.6626 25.3726L30.7624 25.3668C30.7414 25.01 30.5315 24.8027 30.3019 24.7901C30.0698 24.7772 29.8539 24.9644 29.8254 25.3216L29.9251 25.3295ZM1.34753 20.0534C1.34792 20.0552 1.34779 20.058 1.34648 20.0608C1.34532 20.0633 1.34368 20.0648 1.34219 20.0657C1.3407 20.0666 1.33857 20.0673 1.33586 20.0671C1.33278 20.067 1.33022 20.0657 1.32885 20.0645L1.39402 19.9887C1.32966 19.9334 1.2319 19.9915 1.24978 20.0745L1.34753 20.0534Z" fill="#3F8971"/>
<path d="M11.5923 8.60617L12.6473 8.8336L12.6081 8.53037L11.5943 8.42929L11.5923 8.60617Z" fill="#3F8971"/>
<path fill-rule="evenodd" clip-rule="evenodd" d="M12.6473 11.8154V12.1691V12.4218C12.6838 12.5624 12.711 12.6404 12.8042 12.7756C12.9486 12.9394 13.0662 13.0196 13.2747 13.0788C13.6545 13.1085 13.862 13.111 14.2159 13.0788C14.4359 13.0337 14.5576 12.9697 14.7649 12.7756L16.6081 12.4218V7.21637L13.2747 6.8626C12.9082 6.85225 12.782 6.95456 12.7257 7.36798C12.6918 7.56861 12.6751 7.67938 12.6473 7.87337V8.8336V11.8154ZM13.0002 12.3713L13.0787 8.93467C13.1409 8.75137 13.4316 8.78306 13.4316 8.78306C13.4316 8.78306 14.0204 8.82068 14.3728 8.93467C14.5881 9.01368 14.6379 9.17833 14.6865 9.54114L14.7649 11.8659C14.6441 12.359 14.5077 12.5488 14.1375 12.7251C13.8526 12.7399 13.6889 12.7292 13.3924 12.6745C13.2416 12.6484 13.1634 12.6271 13.0394 12.5734C13.0143 12.4987 13.0067 12.4544 13.0002 12.3713Z" fill="#3F8971"/>
<path d="M11.5492 12.3208L12.6473 12.1691V11.8154L11.5569 11.6638L11.5492 12.3208Z" fill="#3F8971"/>
<path d="M9.94141 5.09375L11.6277 5.5486M11.6277 5.5486C11.6277 5.5486 11.6073 7.30431 11.5943 8.42929M11.6277 5.5486L12.1767 5.09375L16.8042 5.64967M11.5492 12.3208L12.6473 12.1691M11.5492 12.3208C11.5492 12.3208 11.5539 11.9203 11.5569 11.6638M11.5492 12.3208L11.5569 11.6638M12.6473 12.1691V11.8154M12.6473 12.1691V12.4218M12.6473 11.8154C12.6473 11.8154 11.9827 11.723 11.5569 11.6638M12.6473 11.8154V8.8336M12.6473 11.8154L11.5569 11.6638M11.5569 11.6638C11.5707 10.4697 11.5784 9.80023 11.5923 8.60617M11.5923 8.60617L12.6473 8.8336M11.5923 8.60617C11.5923 8.60617 11.5935 8.49837 11.5943 8.42929M11.5923 8.60617L11.5943 8.42929M12.6473 8.8336L12.6081 8.53037M12.6473 8.8336V7.87337M12.6081 8.53037C12.6081 8.53037 11.9902 8.46876 11.5943 8.42929M12.6081 8.53037L11.5943 8.42929M12.6473 12.4218C12.6838 12.5624 12.711 12.6404 12.8042 12.7756C12.9486 12.9394 13.0662 13.0196 13.2747 13.0788C13.6545 13.1085 13.862 13.111 14.2159 13.0788C14.4359 13.0337 14.5576 12.9697 14.7649 12.7756L16.6081 12.4218V7.21637L13.2747 6.8626C12.9082 6.85225 12.782 6.95456 12.7257 7.36798C12.6918 7.56861 12.6751 7.67938 12.6473 7.87337M12.6473 12.4218V7.87337M16.9218 6.40775L17.0394 11.967M17.0394 11.967L18.3728 11.8154M17.0394 11.967C17.1961 12.135 17.2544 12.2339 17.2747 12.4218C17.2747 12.4218 17.2747 14.1907 17.2747 14.2412C17.2747 14.2918 17.3924 14.2412 17.3924 14.2412V15.4036C17.3924 15.4036 17.2747 15.3531 17.2747 15.4036C17.2747 15.4541 17.3924 19.7499 17.3924 19.7499M18.8042 11.6638C19.1922 11.3938 19.3246 11.1434 19.3924 10.5014M19.3924 8.1766V7.41852C19.3811 7.02413 19.2971 6.89908 19.0787 6.76152M17.3924 6.40775L18.8042 6.66044M17.51 5.75075L19.6277 6.00344M13.0787 8.93467L13.0002 12.3713C13.0067 12.4544 13.0143 12.4987 13.0394 12.5734C13.1634 12.6271 13.2416 12.6484 13.3924 12.6745C13.6889 12.7292 13.8526 12.7399 14.1375 12.7251C14.5077 12.5488 14.6441 12.359 14.7649 11.8659L14.6865 9.54114C14.6379 9.17833 14.5881 9.01368 14.3728 8.93467C14.0204 8.82068 13.4316 8.78306 13.4316 8.78306C13.4316 8.78306 13.1409 8.75137 13.0787 8.93467Z" stroke="#3F8971" stroke-width="0.1"/>
<path d="M9.86255 5.90163L1.54883 7.46832L2.29393 7.82209L2.37236 8.07478L10.6861 6.50809L10.8822 6.86186L10.6861 12.8254L10.1763 13.5835L1.78412 14.3921L1.99408 11.4103L1.62726 14.6448L9.86255 13.9878L11.1567 13.1792V6.40701L10.8822 6.10378L9.86255 5.90163Z" fill="#3F8971"/>
<path d="M2.25471 5.3457L2.09785 5.80055L1.74491 6.10378V6.6597V6.86186H1.54883V7.46832M1.54883 7.46832L9.86255 5.90163L10.8822 6.10378L11.1567 6.40701V13.1792L9.86255 13.9878L1.62726 14.6448L1.99408 11.4103M1.54883 7.46832L2.29393 7.82209L2.37236 8.07478M2.37236 8.07478L10.6861 6.50809L10.8822 6.86186L10.6861 12.8254L10.1763 13.5835L1.78412 14.3921L1.99408 11.4103M2.37236 8.07478L1.99408 11.4103" stroke="#3F8971" stroke-width="0.1"/>
<path d="M19.9021 15.0496L16.0981 15.555M11.0001 14.9485L10.0981 15.6561C9.83657 16.0134 9.97185 16.0639 10.2942 16.1109L15.353 15.6561M11.7452 16.212V22.3272L10.2942 22.7315H8.45109C8.6103 23.4592 8.54837 23.8057 8.25501 24.3487L2.05894 24.096M1.4707 14.8475L9.62756 14.2915M9.62756 14.2915L8.84325 15.6561L8.25501 22.7315L1.74521 22.5293C1.97495 22.7124 2.02051 22.91 1.90207 23.4895C1.90207 23.4895 1.39227 23.8433 1.31384 24.096C1.2354 24.3487 1.27029 24.4481 1.31384 24.6519L1.4707 24.737M9.62756 14.2915C10.247 13.8015 10.6271 13.5529 11.3923 13.1797M1.54913 26.4713C1.49998 26.1409 1.43324 25.9676 1.43149 25.6627C1.38432 25.323 1.40292 25.0922 1.4707 24.737M1.54913 26.4713L1.23541 26.6735C1.21255 27.3306 1.21386 27.683 1.23541 28.2907C1.23452 28.7432 1.24629 28.9974 1.31384 29.4531L3.58835 29.9585M1.54913 26.4713C1.75345 26.5202 1.89152 26.5599 1.98892 26.4713M1.4707 24.737C1.75796 24.7092 1.88889 24.7707 2.05894 25.0562C2.11044 25.5826 2.10432 25.8687 2.05894 26.3702C2.03819 26.4147 2.01501 26.4476 1.98892 26.4713M3.58835 29.9585V28.8972C4.45824 28.9077 4.94871 28.9557 5.82364 29.0993L5.94129 30.2112M3.58835 29.9585L5.94129 30.2112M5.94129 30.2112L9.58835 30.6155L11.9021 30.2112V27.1283C11.8719 26.9887 11.5973 26.8865 11.4315 26.9767M11.4315 26.9767C11.3737 27.0081 10.804 27.0778 10.5295 27.1283L8.25501 26.9767M11.4315 26.9767C11.7209 26.27 11.6741 25.8027 11.5491 24.9552L10.2942 25.2078L8.29423 25.0562M8.25501 25.41C8.31323 26.8018 8.22002 27.4153 7.43149 27.6842H6.76482M1.98892 26.4713C2.16146 27.0395 2.35814 27.2624 3.0001 27.381" stroke="#3F8971" stroke-width="0.1"/>
<path d="M17.5881 24.3072L17.2689 24.5008C17.0388 24.6403 16.8328 24.8162 16.6589 25.0216V25.0216C16.5208 25.1848 16.4042 25.3651 16.3121 25.558L16.1371 25.9244V25.9244C16.0066 26.2272 15.8996 26.5396 15.817 26.8588L15.7842 26.9857L15.6666 27.5417L15.5881 28.1481V28.6535L15.6273 29.26L15.7058 29.8664L15.8234 30.4729L15.9411 30.9783L16.0979 31.3826L16.294 31.7869L16.5293 32.1912L16.7159 32.4317C16.7744 32.507 16.8402 32.5763 16.9125 32.6384V32.6384C16.9966 32.7106 17.0889 32.7728 17.1874 32.8236L17.2352 32.8482M17.2352 32.8482V32.8482C17.4439 32.9154 17.6582 32.9646 17.8761 32.9896C17.9292 32.9957 17.9693 32.9998 17.9803 32.9998C17.9911 32.9998 18.0239 32.9958 18.0666 32.9899C18.2436 32.9653 18.4141 32.9076 18.5729 32.8257V32.8257C18.6743 32.7734 18.7701 32.7111 18.8589 32.6395L18.9025 32.6045C18.9934 32.5312 19.0785 32.4509 19.1569 32.3643V32.3643C19.2611 32.2492 19.353 32.1235 19.4311 31.9893L19.5489 31.7869L19.6129 31.6632C19.7269 31.4428 19.8235 31.2138 19.9018 30.9783V30.9783L20.0195 30.574L20.1371 30.1191L20.2156 29.6137L20.2548 29.26V28.704M17.2352 32.8482H16.5308C16.325 32.8482 16.1236 32.7889 15.9506 32.6775V32.6775C15.8662 32.6231 15.7899 32.5571 15.7239 32.4815L15.6187 32.361C15.5201 32.2481 15.4334 32.1254 15.3597 31.9949L15.1567 31.6353V31.6353C15.0002 31.3326 14.8707 31.0168 14.7697 30.6913L14.7646 30.675L14.6469 30.0686L14.5685 29.6643L14.5293 29.1589M27.6273 27.2384L27.5881 27.946L27.5669 28.0829C27.5288 28.3281 27.4703 28.5697 27.392 28.8051V28.8051L27.3136 29.0578L27.1567 29.4116L26.9999 29.7148V29.7148C26.8957 29.8826 26.7712 30.0369 26.6292 30.1742L26.5293 30.2707L26.4745 30.3131C26.3806 30.3857 26.2793 30.4484 26.1724 30.5001L26.0996 30.5353C26.0463 30.561 25.9906 30.5814 25.9334 30.5962V30.5962C25.8604 30.615 25.7853 30.6245 25.7098 30.6245H25.6375C25.5786 30.6245 25.5199 30.6183 25.4623 30.6059L25.4048 30.5936C25.3445 30.5806 25.287 30.5568 25.2352 30.5234V30.5234M24.0195 28.1987L24.0587 28.5524L24.1371 28.9567L24.2548 29.3105L24.2728 29.357C24.3649 29.5943 24.4909 29.817 24.6469 30.018V30.018L24.6499 30.0212C24.8045 30.1872 24.9741 30.3384 25.1567 30.4729V30.4729L25.2352 30.5234M25.2352 30.5234L24.504 30.4857C24.3407 30.4773 24.1825 30.4263 24.045 30.3377V30.3377C23.976 30.2933 23.9132 30.2399 23.8581 30.179L23.7656 30.0769C23.6997 30.0041 23.6392 29.9264 23.5848 29.8446L23.4313 29.6137V29.6137C23.3009 29.3786 23.1973 29.1297 23.1222 28.8716L23.1175 28.8557L22.9999 28.4008M29.9018 29.2094L30.0791 29.238C30.1695 29.2525 30.2616 29.2525 30.352 29.238V29.238C30.4689 29.2191 30.5807 29.1763 30.6802 29.1122L30.6894 29.1063C30.7394 29.074 30.7861 29.037 30.8289 28.9956L30.8948 28.932C31.0166 28.8143 31.1215 28.6803 31.2067 28.534L31.3136 28.3503L31.5097 27.8954L31.5161 27.8769C31.6162 27.5865 31.6928 27.2885 31.745 26.9857V26.9857L31.8087 26.575C31.8185 26.512 31.8234 26.4483 31.8234 26.3845V26.3845C31.8234 26.3138 31.8295 26.2431 31.8415 26.1734L31.8626 26.0508C31.8887 25.8994 31.9018 25.7461 31.9018 25.5926V25.3685C31.8757 25.1663 31.8234 24.7317 31.8234 24.6104C31.8234 24.4891 31.7711 24.1556 31.745 24.004L31.6666 23.6502C31.6143 23.4817 31.494 23.1246 31.4313 23.0437C31.3981 23.001 31.3561 22.9187 31.3182 22.8356C31.2594 22.7071 31.1901 22.5813 31.1035 22.4697V22.4697C31.0352 22.3817 30.9561 22.3009 30.8693 22.231V22.231C30.748 22.1333 30.6126 22.0527 30.4629 22.0096C30.4079 21.9938 30.3591 21.9824 30.3332 21.9824C30.2705 21.9824 30.0718 21.9824 29.9803 21.9824H29.7079M29.9018 29.2094L29.8748 29.1885C29.7623 29.1016 29.6578 29.0048 29.5623 28.8994V28.8994C29.4751 28.803 29.3958 28.6997 29.3252 28.5906L29.2352 28.4513L29.0391 28.0976L28.843 27.6933M29.9018 29.2094H29.21C29.1235 29.2094 29.0382 29.1887 28.9613 29.1491V29.1491C28.9089 29.1221 28.8613 29.0868 28.8203 29.0445L28.6862 28.9062V28.9062C28.5818 28.7717 28.4899 28.628 28.4117 28.4768L28.3724 28.4008L28.2548 28.0976L28.1764 27.7943L28.1371 27.4911V27.3395M29.9018 29.2094L29.7449 29.0666C29.6276 28.9599 29.5203 28.8426 29.4246 28.7161V28.7161C29.342 28.6072 29.2683 28.4918 29.204 28.3711L28.843 27.6933M28.843 27.6933L28.7646 27.3626L28.7254 27.1879M17.1175 26.5814L17.232 26.3848C17.3116 26.2479 17.4194 26.1294 17.5482 26.0372L17.6151 25.9893C17.6751 25.9464 17.742 25.914 17.813 25.8937V25.8937C17.9708 25.8485 18.14 25.8652 18.2859 25.9405L18.3513 25.9742C18.4174 26.0082 18.4786 26.051 18.5333 26.1013L18.5922 26.1556C18.6806 26.237 18.7594 26.3308 18.8246 26.4317V26.4317C18.8883 26.5302 18.9408 26.6375 18.979 26.7483L19.0783 27.0363L19.196 27.4406V27.4406C19.2743 27.777 19.3258 28.119 19.3501 28.4636L19.3528 28.5019V28.8805V29.26L19.3136 29.6137L19.2352 29.9675L19.1175 30.3213L18.9999 30.6245L18.8822 30.8772L18.7843 31.035C18.7451 31.0981 18.6993 31.1568 18.6476 31.2101L18.61 31.2489C18.5565 31.3039 18.4945 31.35 18.4263 31.3851V31.3851C18.3646 31.417 18.2985 31.4395 18.2302 31.4521L18.1298 31.4706C18.0825 31.4793 18.0345 31.4837 17.9864 31.4837H17.9532C17.8676 31.4837 17.7828 31.4662 17.7041 31.4324V31.4324C17.6275 31.3995 17.5582 31.3518 17.5002 31.2919L17.4567 31.2471C17.4137 31.2027 17.3752 31.1543 17.3416 31.1025L17.196 30.8772V30.8772C17.0915 30.6753 17.0031 30.4656 16.9314 30.25L16.9215 30.2202L16.8038 29.8159L16.7254 29.4116L16.6862 28.9838C16.6862 28.7558 16.6862 28.2896 16.6862 28.2492C16.6862 28.2088 16.7123 27.9628 16.7254 27.8449L16.8038 27.4406L16.9215 27.0363L17.1175 26.5814ZM25.2352 24.762L25.352 24.5739C25.3786 24.531 25.4104 24.4916 25.4466 24.4566L25.4535 24.4499C25.5163 24.3893 25.5921 24.3438 25.6752 24.317L25.7105 24.3057C25.8091 24.2739 25.9154 24.2761 26.0126 24.3119V24.3119C26.094 24.3418 26.1653 24.3941 26.2185 24.4626L26.294 24.5599V24.5599C26.424 24.761 26.5241 24.9799 26.591 25.2098L26.6077 25.2674L26.7254 25.6717L26.8038 26.076L26.843 26.4298V26.7836V27.1879L26.8038 27.5417L26.7254 27.8954L26.6469 28.1987L26.5293 28.5019V28.5019C26.4771 28.6364 26.4144 28.7667 26.3418 28.8914L26.3332 28.9062L26.2795 28.9755C26.237 29.0301 26.1879 29.0792 26.1331 29.1216L26.071 29.1696C26.0369 29.1959 25.9985 29.2162 25.9575 29.2294V29.2294C25.8953 29.2494 25.829 29.2527 25.7652 29.239L25.742 29.234C25.6667 29.2179 25.5968 29.1832 25.5384 29.133L25.4807 29.0835C25.422 29.033 25.3712 28.9738 25.3304 28.9079L25.2943 28.8497C25.255 28.7864 25.2216 28.7196 25.1947 28.6502L25.1175 28.4513C25.0783 28.3503 24.9999 28.138 24.9999 28.0976V28.0976C24.9999 27.8891 24.9119 27.6897 24.8931 27.482L24.8822 27.3626L24.843 26.8847C24.843 26.7667 24.843 26.5208 24.843 26.4803C24.843 26.4399 24.8692 26.1603 24.8822 26.0255L24.8869 25.983C24.9099 25.7758 24.9477 25.5704 24.9999 25.3685V25.3685V25.3685C25.052 25.167 25.1266 24.972 25.2222 24.7871L25.2352 24.762ZM29.5097 24.4588L29.5643 24.2478C29.6061 24.0859 29.6684 23.9299 29.7494 23.7837L29.7971 23.6976C29.8146 23.666 29.8345 23.6359 29.8567 23.6073L29.8886 23.5662C29.9485 23.489 30.0289 23.4301 30.1206 23.3964L30.1361 23.3907C30.2138 23.3621 30.2977 23.3549 30.3791 23.3699V23.3699C30.4766 23.3878 30.5658 23.4367 30.6333 23.5092L30.6781 23.5573C30.7353 23.6187 30.7802 23.6903 30.8105 23.7685L30.875 23.9347C30.9059 24.0144 30.9304 24.0966 30.9481 24.1803L31.0391 24.6104V24.6104C31.0913 24.9131 31.1175 25.2197 31.1175 25.5268V25.6212L31.0783 26.1771L30.9999 26.632L30.8822 27.0868L30.7915 27.3207C30.7736 27.3668 30.7521 27.4115 30.7272 27.4544L30.6957 27.5084C30.6634 27.5639 30.6221 27.6136 30.5734 27.6554L30.5073 27.7122C30.4456 27.7652 30.3669 27.7943 30.2856 27.7943V27.7943C30.2394 27.7943 30.1937 27.7849 30.1513 27.7667L30.1112 27.7495C30.0253 27.7126 29.9502 27.6545 29.8929 27.5807L29.7842 27.4406V27.4406C29.68 27.2727 29.5958 27.0932 29.5335 26.9057L29.5097 26.8341L29.4313 26.4803L29.392 26.0255V25.5201L29.4313 24.9642L29.5097 24.4588Z" stroke="#3F8971" stroke-width="0.1"/>
<path d="M9.78433 5.04324C9.75296 5.04324 8.17649 5.31278 7.39218 5.44755H8.17649L9.74512 5.14432L9.78433 5.04324Z" fill="#3F8971"/>
<path d="M2.451 6.71101L2.68629 6.96371L3.54904 6.81209L3.47061 5.54863L3.35296 5.44755L2.60786 5.75078L3.23531 5.85186L3.31374 6.5594L2.49022 6.66048L2.451 6.15509V6.71101Z" fill="#3F8971"/>
<path d="M6.13727 5.29594L6.17649 6.05401L6.33335 6.20563L7.31374 6.00348V4.94217L7.1961 4.79055L7.07845 4.74001L6.13727 5.09378H7.00002V5.75078L6.25492 5.85186L6.13727 5.29594Z" fill="#3F8971"/>
<path d="M6.05884 5.70024V5.95294L4.25492 6.30671L3.58825 6.35724L4.13727 6.10455L6.01963 5.70024H6.05884Z" fill="#3F8971"/>
<path d="M1.74512 6.81209L2.21571 6.71101M2.451 6.10455V6.15509M2.451 6.15509V6.71101L2.68629 6.96371L3.54904 6.81209L3.47061 5.54863L3.35296 5.44755L2.60786 5.75078L3.23531 5.85186L3.31374 6.5594L2.49022 6.66048L2.451 6.15509ZM9.78433 5.04324C9.75296 5.04324 8.17649 5.31278 7.39218 5.44755H8.17649L9.74512 5.14432M9.78433 5.04324L9.74512 5.14432M9.78433 5.04324H9.89498M9.74512 5.14432L9.89498 5.04324M9.90198 5.85186V5.29594L9.89498 5.04324M9.86276 3.88086L9.89498 5.04324M6.05884 5.70024V5.95294L4.25492 6.30671L3.58825 6.35724L4.13727 6.10455L6.01963 5.70024H6.05884ZM6.13727 5.29594L6.17649 6.05401L6.33335 6.20563L7.31374 6.00348V4.94217L7.1961 4.79055L7.07845 4.74001L6.13727 5.09378H7.00002V5.75078L6.25492 5.85186L6.13727 5.29594Z" stroke="#3F8971" stroke-width="0.1"/>
<path d="M2.25488 5.34631L9.86273 3.83015M9.86273 3.83015L19.8235 5.09362C19.8235 5.09362 18.5686 1.96023 18.2549 1.70754C17.9412 1.45485 17.7592 1.30387 17.3921 1.25269L11.3921 1M9.86273 3.83015L2.2941 5.33849C2.17318 4.75944 2.54609 3.88355 2.60782 3.88069C2.60782 3.88069 3.46677 3.01339 4.01959 2.71831L11.3921 1M9.86273 3.83015C9.88211 3.3646 9.85945 3.10536 9.98037 2.66777C10.3355 1.75875 10.5925 1.4038 11.3921 1" stroke="#3F8971" stroke-width="0.1"/>
<path d="M2.92147 23.1362V23.8437M2.92147 23.8437V23.2819C2.92147 23.1747 3.0104 23.0888 3.11755 23.0926V23.0926M2.92147 23.8437L3.11755 23.8507M3.11755 23.8507V23.0926M3.11755 23.8507L3.43127 23.8618M3.11755 23.0926L3.43127 23.1037M3.43127 23.1037V23.8618M3.43127 23.1037L3.70578 23.1135M3.43127 23.8618L3.70578 23.8716M3.70578 23.8716V23.1135M3.70578 23.8716L3.94108 23.8799M3.70578 23.1135L3.94108 23.1218M3.94108 23.1218V23.8799M3.94108 23.1218L4.2548 23.133M3.94108 23.8799L4.2548 23.891M4.2548 23.891V23.133M4.2548 23.891L4.52931 23.9008M4.2548 23.133L4.52931 23.1427M4.52931 23.1427V23.9008M4.52931 23.1427L4.84304 23.1538M4.52931 23.9008L5.19598 23.9244M4.84304 23.8437V23.1538M4.84304 23.1538L5.19598 23.1663M5.19598 23.1663V23.9244M5.19598 23.1663L5.54892 23.1789M5.19598 23.9244L5.54892 23.9369M5.54892 23.9369V23.1789M5.54892 23.9369L5.98029 23.9522M5.54892 23.1789L5.98029 23.1942M5.98029 23.1942V23.9522M5.98029 23.1942L6.37245 23.2081M5.98029 23.9522L6.37245 23.9661M6.37245 23.9661L6.80375 23.9814C7.01808 23.989 7.19598 23.8174 7.19598 23.6029V23.6029C7.19598 23.3989 7.03445 23.2316 6.8306 23.2243L6.78421 23.2227M6.37245 23.9661V23.2081M6.37245 23.2081L6.78421 23.2227M6.78421 23.2227V23.9008M10.3332 22.9341C10.1595 23.4068 10.1372 23.9954 10.2156 24.0459M10.2156 25.5621C10.3756 25.8563 10.3648 26.1596 10.2548 26.8255M7.03911 29.1503L8.80382 29.3019M9.5097 29.3524C10.0867 29.3851 10.3904 29.3399 10.8822 29.0997M2.64696 16.5662C2.64696 16.6471 2.75154 17.1053 2.80383 17.3243L6.37245 17.2232L6.64696 16.2124M1.35285 15.707L2.09794 15.8587M2.25481 16.1114C2.50961 16.3487 2.54069 16.5372 2.41167 16.9705M1.27441 17.0716C1.33716 17.0716 1.9803 17.2737 2.29402 17.3748M7.07834 15.707C6.90099 15.8242 6.7237 16.6379 6.76461 17.0716M9.03912 15.1006L7.15677 15.606M8.68618 16.8694C8.62343 16.9099 7.50971 17.1221 6.96069 17.2232M10.1764 19.3458C10.6539 19.0839 10.9214 18.9383 11.3921 18.8404M10.1372 18.4361L10.9999 18.0824C11.2467 17.9602 11.3308 18.0324 11.3921 18.3856M4.84304 30.1105C5.44714 31.5909 5.98934 32.1121 7.39206 32.1321C7.40523 32.1325 7.4183 32.1329 7.43128 32.1331M9.5097 30.6664C8.88987 31.7136 8.44471 32.1553 7.43128 32.1331M5.9803 30.2116C6.28216 31.1485 6.58344 31.5801 7.43128 32.1331M8.52931 27.6341C8.38438 27.6961 8.33885 27.7956 8.29401 28.0384C8.32417 28.3056 8.36592 28.4193 8.52931 28.4933C8.66544 28.4403 8.72703 28.3691 8.7646 28.0384C8.7364 27.7655 8.68943 27.6683 8.52931 27.6341ZM9.90186 27.6341C9.60485 27.637 9.51136 27.7654 9.43127 28.1395C9.46132 28.4627 9.54611 28.5875 9.82343 28.6954C10.0222 28.6435 10.1172 28.5621 10.2156 28.1901C10.1875 27.8703 10.1123 27.7545 9.90186 27.6341ZM1.62735 27.1793C1.52892 27.175 1.50619 27.2736 1.5097 27.5836C1.53352 27.8861 1.55395 28.0094 1.62735 27.9879C1.72491 27.9823 1.73429 27.8454 1.745 27.5836C1.72841 27.2846 1.70659 27.1784 1.62735 27.1793Z" stroke="#3F8971" stroke-width="0.1"/>
</svg>
